<svg width="148" height="189" viewBox="0 0 148 189" fill="none" xmlns="http://www.w3.org/2000/svg">
<g clip-path="url(#clip0_2111_1788)">
<circle opacity="0.3" cx="74" cy="74" r="71" stroke="#F52F6E" stroke-width="6"/>
<path d="M74 142C111.555 142 142 111.555 142 74C142 36.4446 111.555 6 74 6V0C114.869 0 148 33.1309 148 74C148 114.869 114.869 148 74 148C33.1309 148 0 114.869 0 74H6C6 111.555 36.4446 142 74 142Z" fill="#F52F6E"/>
<path d="M71.1845 69.648C71.1845 70.4587 71.0245 71.2373 70.7045 71.984C70.3845 72.7307 69.9685 73.456 69.4565 74.16C68.9445 74.8427 68.3685 75.504 67.7285 76.144C67.0885 76.784 66.4592 77.392 65.8405 77.968C65.5205 78.2667 65.1685 78.608 64.7845 78.992C64.4218 79.3547 64.0698 79.728 63.7285 80.112C63.3872 80.496 63.0778 80.8587 62.8005 81.2C62.5445 81.52 62.3845 81.7867 62.3205 82H71.8565V86H57.0725C57.0298 85.7653 57.0085 85.4667 57.0085 85.104C57.0085 84.7413 57.0085 84.4853 57.0085 84.336C57.0085 83.312 57.1685 82.3733 57.4885 81.52C57.8298 80.6667 58.2672 79.8773 58.8005 79.152C59.3338 78.4053 59.9312 77.712 60.5925 77.072C61.2752 76.432 61.9472 75.792 62.6085 75.152C63.1205 74.6613 63.6005 74.2027 64.0485 73.776C64.4965 73.328 64.8912 72.9013 65.2325 72.496C65.5738 72.0693 65.8405 71.6533 66.0325 71.248C66.2245 70.8213 66.3205 70.3947 66.3205 69.968C66.3205 69.0293 66.0538 68.368 65.5205 67.984C64.9872 67.6 64.3258 67.408 63.5365 67.408C62.9605 67.408 62.4165 67.504 61.9045 67.696C61.4138 67.8667 60.9552 68.08 60.5285 68.336C60.1232 68.5707 59.7712 68.816 59.4725 69.072C59.1738 69.3067 58.9498 69.4987 58.8005 69.648L56.4325 66.32C57.3712 65.4453 58.4592 64.7307 59.6965 64.176C60.9552 63.6 62.2992 63.312 63.7285 63.312C65.0298 63.312 66.1498 63.4613 67.0885 63.76C68.0272 64.0587 68.7952 64.4853 69.3925 65.04C70.0112 65.5733 70.4592 66.2347 70.7365 67.024C71.0352 67.792 71.1845 68.6667 71.1845 69.648ZM90.588 74.864C90.588 78.5973 89.8733 81.4667 88.444 83.472C87.036 85.456 85.084 86.448 82.588 86.448C80.092 86.448 78.1293 85.456 76.7 83.472C75.292 81.4667 74.588 78.5973 74.588 74.864C74.588 73.008 74.7693 71.3653 75.132 69.936C75.516 68.5067 76.06 67.3013 76.764 66.32C77.468 65.3387 78.3107 64.592 79.292 64.08C80.2733 63.568 81.372 63.312 82.588 63.312C85.084 63.312 87.036 64.3147 88.444 66.32C89.8733 68.304 90.588 71.152 90.588 74.864ZM85.724 74.864C85.724 73.7547 85.6707 72.752 85.564 71.856C85.4573 70.9387 85.2867 70.1493 85.052 69.488C84.8173 68.8267 84.4973 68.3147 84.092 67.952C83.6867 67.5893 83.1853 67.408 82.588 67.408C81.9907 67.408 81.4893 67.5893 81.084 67.952C80.7 68.3147 80.38 68.8267 80.124 69.488C79.8893 70.1493 79.7187 70.9387 79.612 71.856C79.5053 72.752 79.452 73.7547 79.452 74.864C79.452 75.9733 79.5053 76.9867 79.612 77.904C79.7187 78.8213 79.8893 79.6107 80.124 80.272C80.38 80.9333 80.7 81.4453 81.084 81.808C81.4893 82.1707 81.9907 82.352 82.588 82.352C83.1853 82.352 83.6867 82.1707 84.092 81.808C84.4973 81.4453 84.8173 80.9333 85.052 80.272C85.2867 79.6107 85.4573 78.8213 85.564 77.904C85.6707 76.9867 85.724 75.9733 85.724 74.864Z" fill="#1E212C"/>
</g>
<path d="M15.1292 184V180.108C14.4852 179.109 13.8786 178.125 13.3092 177.154C12.7399 176.183 12.2032 175.231 11.6992 174.298H13.2952C13.6499 175.063 14.0466 175.843 14.4852 176.636C14.9239 177.42 15.3766 178.176 15.8432 178.904C16.3006 178.176 16.7486 177.42 17.1872 176.636C17.6259 175.843 18.0272 175.063 18.3912 174.298H19.9032C19.3992 175.231 18.8626 176.183 18.2932 177.154C17.7239 178.115 17.1219 179.091 16.4872 180.08V184H15.1292ZM20.0128 180.374C20.0128 179.73 20.1062 179.17 20.2928 178.694C20.4795 178.209 20.7268 177.807 21.0348 177.49C21.3428 177.173 21.6975 176.935 22.0988 176.776C22.5002 176.617 22.9108 176.538 23.3308 176.538C24.3108 176.538 25.0622 176.846 25.5848 177.462C26.1075 178.069 26.3688 178.997 26.3688 180.248C26.3688 180.304 26.3688 180.379 26.3688 180.472C26.3688 180.556 26.3642 180.635 26.3548 180.71H21.3708C21.4268 181.466 21.6462 182.04 22.0288 182.432C22.4115 182.824 23.0088 183.02 23.8208 183.02C24.2782 183.02 24.6608 182.983 24.9688 182.908C25.2862 182.824 25.5242 182.745 25.6828 182.67L25.8648 183.762C25.7062 183.846 25.4262 183.935 25.0248 184.028C24.6328 184.121 24.1848 184.168 23.6808 184.168C23.0462 184.168 22.4955 184.075 22.0288 183.888C21.5715 183.692 21.1935 183.426 20.8948 183.09C20.5962 182.754 20.3722 182.357 20.2228 181.9C20.0828 181.433 20.0128 180.925 20.0128 180.374ZM25.0108 179.66C25.0202 179.072 24.8708 178.591 24.5628 178.218C24.2642 177.835 23.8488 177.644 23.3168 177.644C23.0182 177.644 22.7522 177.705 22.5188 177.826C22.2948 177.938 22.1035 178.087 21.9448 178.274C21.7862 178.461 21.6602 178.675 21.5668 178.918C21.4828 179.161 21.4268 179.408 21.3988 179.66H25.0108ZM30.7031 183.062C31.0111 183.062 31.2818 183.057 31.5151 183.048C31.7578 183.029 31.9585 183.001 32.1171 182.964V180.794C32.0238 180.747 31.8698 180.71 31.6551 180.682C31.4498 180.645 31.1978 180.626 30.8991 180.626C30.7031 180.626 30.4931 180.64 30.2691 180.668C30.0545 180.696 29.8538 180.757 29.6671 180.85C29.4898 180.934 29.3405 181.055 29.2191 181.214C29.0978 181.363 29.0371 181.564 29.0371 181.816C29.0371 182.283 29.1865 182.609 29.4851 182.796C29.7838 182.973 30.1898 183.062 30.7031 183.062ZM30.5911 176.538C31.1138 176.538 31.5525 176.608 31.9071 176.748C32.2711 176.879 32.5605 177.07 32.7751 177.322C32.9991 177.565 33.1578 177.859 33.2511 178.204C33.3445 178.54 33.3911 178.913 33.3911 179.324V183.874C33.2791 183.893 33.1205 183.921 32.9151 183.958C32.7191 183.986 32.4951 184.014 32.2431 184.042C31.9911 184.07 31.7158 184.093 31.4171 184.112C31.1278 184.14 30.8385 184.154 30.5491 184.154C30.1385 184.154 29.7605 184.112 29.4151 184.028C29.0698 183.944 28.7711 183.813 28.5191 183.636C28.2671 183.449 28.0711 183.207 27.9311 182.908C27.7911 182.609 27.7211 182.25 27.7211 181.83C27.7211 181.429 27.8005 181.083 27.9591 180.794C28.1271 180.505 28.3511 180.271 28.6311 180.094C28.9111 179.917 29.2378 179.786 29.6111 179.702C29.9845 179.618 30.3765 179.576 30.7871 179.576C30.9178 179.576 31.0531 179.585 31.1931 179.604C31.3331 179.613 31.4638 179.632 31.5851 179.66C31.7158 179.679 31.8278 179.697 31.9211 179.716C32.0145 179.735 32.0798 179.749 32.1171 179.758V179.394C32.1171 179.179 32.0938 178.969 32.0471 178.764C32.0005 178.549 31.9165 178.363 31.7951 178.204C31.6738 178.036 31.5058 177.905 31.2911 177.812C31.0858 177.709 30.8151 177.658 30.4791 177.658C30.0498 177.658 29.6718 177.691 29.3451 177.756C29.0278 177.812 28.7898 177.873 28.6311 177.938L28.4771 176.86C28.6451 176.785 28.9251 176.715 29.3171 176.65C29.7091 176.575 30.1338 176.538 30.5911 176.538ZM38.2416 176.566C38.3536 176.566 38.4796 176.575 38.6196 176.594C38.7689 176.603 38.9136 176.622 39.0536 176.65C39.1936 176.669 39.3196 176.692 39.4316 176.72C39.5529 176.739 39.6416 176.757 39.6976 176.776L39.4736 177.91C39.3709 177.873 39.1983 177.831 38.9556 177.784C38.7223 177.728 38.4189 177.7 38.0456 177.7C37.8029 177.7 37.5603 177.728 37.3176 177.784C37.0843 177.831 36.9303 177.863 36.8556 177.882V184H35.5536V177.028C35.8616 176.916 36.2443 176.813 36.7016 176.72C37.1589 176.617 37.6723 176.566 38.2416 176.566ZM42.648 183.062C43.18 183.062 43.572 182.992 43.824 182.852C44.0853 182.712 44.216 182.488 44.216 182.18C44.216 181.863 44.09 181.611 43.838 181.424C43.586 181.237 43.1707 181.027 42.592 180.794C42.312 180.682 42.0413 180.57 41.78 180.458C41.528 180.337 41.3087 180.197 41.122 180.038C40.9353 179.879 40.786 179.688 40.674 179.464C40.562 179.24 40.506 178.965 40.506 178.638C40.506 177.994 40.744 177.485 41.22 177.112C41.696 176.729 42.3447 176.538 43.166 176.538C43.3713 176.538 43.5767 176.552 43.782 176.58C43.9873 176.599 44.1787 176.627 44.356 176.664C44.5333 176.692 44.6873 176.725 44.818 176.762C44.958 176.799 45.0653 176.832 45.14 176.86L44.902 177.98C44.762 177.905 44.5427 177.831 44.244 177.756C43.9453 177.672 43.586 177.63 43.166 177.63C42.802 177.63 42.4847 177.705 42.214 177.854C41.9433 177.994 41.808 178.218 41.808 178.526C41.808 178.685 41.836 178.825 41.892 178.946C41.9573 179.067 42.0507 179.179 42.172 179.282C42.3027 179.375 42.4613 179.464 42.648 179.548C42.8347 179.632 43.0587 179.721 43.32 179.814C43.6653 179.945 43.9733 180.075 44.244 180.206C44.5147 180.327 44.7433 180.472 44.93 180.64C45.126 180.808 45.2753 181.013 45.378 181.256C45.4807 181.489 45.532 181.779 45.532 182.124C45.532 182.796 45.28 183.305 44.776 183.65C44.2813 183.995 43.572 184.168 42.648 184.168C42.004 184.168 41.5 184.112 41.136 184C40.772 183.897 40.5247 183.818 40.394 183.762L40.632 182.642C40.7813 182.698 41.0193 182.782 41.346 182.894C41.6727 183.006 42.1067 183.062 42.648 183.062ZM56.8683 180.36C56.8683 180.939 56.7843 181.461 56.6163 181.928C56.4483 182.395 56.2103 182.796 55.9023 183.132C55.6036 183.468 55.2443 183.729 54.8243 183.916C54.4043 184.093 53.9469 184.182 53.4523 184.182C52.9576 184.182 52.5003 184.093 52.0803 183.916C51.6603 183.729 51.2963 183.468 50.9883 183.132C50.6896 182.796 50.4563 182.395 50.2883 181.928C50.1203 181.461 50.0363 180.939 50.0363 180.36C50.0363 179.791 50.1203 179.273 50.2883 178.806C50.4563 178.33 50.6896 177.924 50.9883 177.588C51.2963 177.252 51.6603 176.995 52.0803 176.818C52.5003 176.631 52.9576 176.538 53.4523 176.538C53.9469 176.538 54.4043 176.631 54.8243 176.818C55.2443 176.995 55.6036 177.252 55.9023 177.588C56.2103 177.924 56.4483 178.33 56.6163 178.806C56.7843 179.273 56.8683 179.791 56.8683 180.36ZM55.5103 180.36C55.5103 179.539 55.3236 178.89 54.9503 178.414C54.5863 177.929 54.0869 177.686 53.4523 177.686C52.8176 177.686 52.3136 177.929 51.9403 178.414C51.5763 178.89 51.3943 179.539 51.3943 180.36C51.3943 181.181 51.5763 181.835 51.9403 182.32C52.3136 182.796 52.8176 183.034 53.4523 183.034C54.0869 183.034 54.5863 182.796 54.9503 182.32C55.3236 181.835 55.5103 181.181 55.5103 180.36ZM61.5421 173.136C61.9247 173.136 62.2514 173.164 62.5221 173.22C62.8021 173.276 62.9981 173.327 63.1101 173.374L62.8721 174.494C62.7601 174.438 62.6014 174.387 62.3961 174.34C62.1907 174.284 61.9387 174.256 61.6401 174.256C61.0334 174.256 60.6087 174.424 60.3661 174.76C60.1234 175.087 60.0021 175.53 60.0021 176.09V176.72H62.8021V177.812H60.0021V184H58.7001V176.062C58.7001 175.129 58.9287 174.41 59.3861 173.906C59.8434 173.393 60.5621 173.136 61.5421 173.136ZM66.9347 180.374C66.9347 179.73 67.028 179.17 67.2147 178.694C67.4014 178.209 67.6487 177.807 67.9567 177.49C68.2647 177.173 68.6194 176.935 69.0207 176.776C69.422 176.617 69.8327 176.538 70.2527 176.538C71.2327 176.538 71.984 176.846 72.5067 177.462C73.0294 178.069 73.2907 178.997 73.2907 180.248C73.2907 180.304 73.2907 180.379 73.2907 180.472C73.2907 180.556 73.286 180.635 73.2767 180.71H68.2927C68.3487 181.466 68.568 182.04 68.9507 182.432C69.3334 182.824 69.9307 183.02 70.7427 183.02C71.2 183.02 71.5827 182.983 71.8907 182.908C72.208 182.824 72.446 182.745 72.6047 182.67L72.7867 183.762C72.628 183.846 72.348 183.935 71.9467 184.028C71.5547 184.121 71.1067 184.168 70.6027 184.168C69.968 184.168 69.4174 184.075 68.9507 183.888C68.4934 183.692 68.1154 183.426 67.8167 183.09C67.518 182.754 67.294 182.357 67.1447 181.9C67.0047 181.433 66.9347 180.925 66.9347 180.374ZM71.9327 179.66C71.942 179.072 71.7927 178.591 71.4847 178.218C71.186 177.835 70.7707 177.644 70.2387 177.644C69.94 177.644 69.674 177.705 69.4407 177.826C69.2167 177.938 69.0254 178.087 68.8667 178.274C68.708 178.461 68.582 178.675 68.4887 178.918C68.4047 179.161 68.3487 179.408 68.3207 179.66H71.9327ZM79.515 184C79.4123 183.795 79.2863 183.566 79.137 183.314C78.9877 183.062 78.8243 182.805 78.647 182.544C78.4697 182.273 78.2877 182.007 78.101 181.746C77.9143 181.485 77.7323 181.237 77.555 181.004C77.3777 181.237 77.1957 181.489 77.009 181.76C76.8223 182.021 76.6403 182.287 76.463 182.558C76.295 182.819 76.1363 183.076 75.987 183.328C75.8377 183.58 75.7117 183.804 75.609 184H74.265C74.5917 183.365 74.979 182.721 75.427 182.068C75.8843 181.405 76.337 180.775 76.785 180.178L74.377 176.72H75.847L77.583 179.268L79.333 176.72H80.719L78.367 180.094C78.815 180.701 79.2723 181.345 79.739 182.026C80.215 182.698 80.6163 183.356 80.943 184H79.515ZM87.3654 180.374C87.3654 179.525 87.1554 178.871 86.7354 178.414C86.3154 177.957 85.7554 177.728 85.0554 177.728C84.6634 177.728 84.3554 177.742 84.1314 177.77C83.9167 177.798 83.7441 177.831 83.6134 177.868V182.46C83.7721 182.591 84.0007 182.717 84.2994 182.838C84.5981 182.959 84.9247 183.02 85.2794 183.02C85.6527 183.02 85.9701 182.955 86.2314 182.824C86.5021 182.684 86.7214 182.497 86.8894 182.264C87.0574 182.021 87.1787 181.741 87.2534 181.424C87.3281 181.097 87.3654 180.747 87.3654 180.374ZM88.7234 180.374C88.7234 180.925 88.6487 181.433 88.4994 181.9C88.3594 182.367 88.1494 182.768 87.8694 183.104C87.5894 183.44 87.2441 183.701 86.8334 183.888C86.4321 184.075 85.9701 184.168 85.4474 184.168C85.0274 184.168 84.6541 184.112 84.3274 184C84.0101 183.888 83.7721 183.781 83.6134 183.678V186.59H82.3114V176.944C82.6194 176.869 83.0021 176.79 83.4594 176.706C83.9261 176.613 84.4627 176.566 85.0694 176.566C85.6294 176.566 86.1334 176.655 86.5814 176.832C87.0294 177.009 87.4121 177.261 87.7294 177.588C88.0467 177.915 88.2894 178.316 88.4574 178.792C88.6347 179.259 88.7234 179.786 88.7234 180.374ZM90.1495 180.374C90.1495 179.73 90.2429 179.17 90.4295 178.694C90.6162 178.209 90.8635 177.807 91.1715 177.49C91.4795 177.173 91.8342 176.935 92.2355 176.776C92.6369 176.617 93.0475 176.538 93.4675 176.538C94.4475 176.538 95.1989 176.846 95.7215 177.462C96.2442 178.069 96.5055 178.997 96.5055 180.248C96.5055 180.304 96.5055 180.379 96.5055 180.472C96.5055 180.556 96.5009 180.635 96.4915 180.71H91.5075C91.5635 181.466 91.7829 182.04 92.1655 182.432C92.5482 182.824 93.1455 183.02 93.9575 183.02C94.4149 183.02 94.7975 182.983 95.1055 182.908C95.4229 182.824 95.6609 182.745 95.8195 182.67L96.0015 183.762C95.8429 183.846 95.5629 183.935 95.1615 184.028C94.7695 184.121 94.3215 184.168 93.8175 184.168C93.1829 184.168 92.6322 184.075 92.1655 183.888C91.7082 183.692 91.3302 183.426 91.0315 183.09C90.7329 182.754 90.5089 182.357 90.3595 181.9C90.2195 181.433 90.1495 180.925 90.1495 180.374ZM95.1475 179.66C95.1569 179.072 95.0075 178.591 94.6995 178.218C94.4009 177.835 93.9855 177.644 93.4535 177.644C93.1549 177.644 92.8889 177.705 92.6555 177.826C92.4315 177.938 92.2402 178.087 92.0815 178.274C91.9229 178.461 91.7969 178.675 91.7035 178.918C91.6195 179.161 91.5635 179.408 91.5355 179.66H95.1475ZM101.064 176.566C101.176 176.566 101.302 176.575 101.442 176.594C101.591 176.603 101.736 176.622 101.876 176.65C102.016 176.669 102.142 176.692 102.254 176.72C102.375 176.739 102.464 176.757 102.52 176.776L102.296 177.91C102.193 177.873 102.021 177.831 101.778 177.784C101.545 177.728 101.241 177.7 100.868 177.7C100.625 177.7 100.383 177.728 100.14 177.784C99.9065 177.831 99.7525 177.863 99.6779 177.882V184H98.3759V177.028C98.6839 176.916 99.0665 176.813 99.5239 176.72C99.9812 176.617 100.495 176.566 101.064 176.566ZM105.078 184H103.776V176.72H105.078V184ZM104.42 175.404C104.187 175.404 103.986 175.329 103.818 175.18C103.66 175.021 103.58 174.811 103.58 174.55C103.58 174.289 103.66 174.083 103.818 173.934C103.986 173.775 104.187 173.696 104.42 173.696C104.654 173.696 104.85 173.775 105.008 173.934C105.176 174.083 105.26 174.289 105.26 174.55C105.26 174.811 105.176 175.021 105.008 175.18C104.85 175.329 104.654 175.404 104.42 175.404ZM106.911 180.374C106.911 179.73 107.005 179.17 107.191 178.694C107.378 178.209 107.625 177.807 107.933 177.49C108.241 177.173 108.596 176.935 108.997 176.776C109.399 176.617 109.809 176.538 110.229 176.538C111.209 176.538 111.961 176.846 112.483 177.462C113.006 178.069 113.267 178.997 113.267 180.248C113.267 180.304 113.267 180.379 113.267 180.472C113.267 180.556 113.263 180.635 113.253 180.71H108.269C108.325 181.466 108.545 182.04 108.927 182.432C109.31 182.824 109.907 183.02 110.719 183.02C111.177 183.02 111.559 182.983 111.867 182.908C112.185 182.824 112.423 182.745 112.581 182.67L112.763 183.762C112.605 183.846 112.325 183.935 111.923 184.028C111.531 184.121 111.083 184.168 110.579 184.168C109.945 184.168 109.394 184.075 108.927 183.888C108.47 183.692 108.092 183.426 107.793 183.09C107.495 182.754 107.271 182.357 107.121 181.9C106.981 181.433 106.911 180.925 106.911 180.374ZM111.909 179.66C111.919 179.072 111.769 178.591 111.461 178.218C111.163 177.835 110.747 177.644 110.215 177.644C109.917 177.644 109.651 177.705 109.417 177.826C109.193 177.938 109.002 178.087 108.843 178.274C108.685 178.461 108.559 178.675 108.465 178.918C108.381 179.161 108.325 179.408 108.297 179.66H111.909ZM115.138 176.93C115.436 176.855 115.833 176.776 116.328 176.692C116.822 176.608 117.392 176.566 118.036 176.566C118.614 176.566 119.095 176.65 119.478 176.818C119.86 176.977 120.164 177.205 120.388 177.504C120.621 177.793 120.784 178.143 120.878 178.554C120.971 178.965 121.018 179.417 121.018 179.912V184H119.716V180.192C119.716 179.744 119.683 179.361 119.618 179.044C119.562 178.727 119.464 178.47 119.324 178.274C119.184 178.078 118.997 177.938 118.764 177.854C118.53 177.761 118.241 177.714 117.896 177.714C117.756 177.714 117.611 177.719 117.462 177.728C117.312 177.737 117.168 177.751 117.028 177.77C116.897 177.779 116.776 177.793 116.664 177.812C116.561 177.831 116.486 177.845 116.44 177.854V184H115.138V176.93ZM126.341 184.168C125.753 184.168 125.235 184.075 124.787 183.888C124.348 183.701 123.975 183.44 123.667 183.104C123.368 182.768 123.144 182.371 122.995 181.914C122.845 181.447 122.771 180.934 122.771 180.374C122.771 179.814 122.85 179.301 123.009 178.834C123.177 178.367 123.41 177.966 123.709 177.63C124.007 177.285 124.371 177.019 124.801 176.832C125.239 176.636 125.725 176.538 126.257 176.538C126.583 176.538 126.91 176.566 127.237 176.622C127.563 176.678 127.876 176.767 128.175 176.888L127.881 177.994C127.685 177.901 127.456 177.826 127.195 177.77C126.943 177.714 126.672 177.686 126.383 177.686C125.655 177.686 125.095 177.915 124.703 178.372C124.32 178.829 124.129 179.497 124.129 180.374C124.129 180.766 124.171 181.125 124.255 181.452C124.348 181.779 124.488 182.059 124.675 182.292C124.871 182.525 125.118 182.707 125.417 182.838C125.715 182.959 126.079 183.02 126.509 183.02C126.854 183.02 127.167 182.987 127.447 182.922C127.727 182.857 127.946 182.787 128.105 182.712L128.287 183.804C128.212 183.851 128.105 183.897 127.965 183.944C127.825 183.981 127.666 184.014 127.489 184.042C127.311 184.079 127.12 184.107 126.915 184.126C126.719 184.154 126.527 184.168 126.341 184.168ZM129.278 180.374C129.278 179.73 129.372 179.17 129.558 178.694C129.745 178.209 129.992 177.807 130.3 177.49C130.608 177.173 130.963 176.935 131.364 176.776C131.766 176.617 132.176 176.538 132.596 176.538C133.576 176.538 134.328 176.846 134.85 177.462C135.373 178.069 135.634 178.997 135.634 180.248C135.634 180.304 135.634 180.379 135.634 180.472C135.634 180.556 135.63 180.635 135.62 180.71H130.636C130.692 181.466 130.912 182.04 131.294 182.432C131.677 182.824 132.274 183.02 133.086 183.02C133.544 183.02 133.926 182.983 134.234 182.908C134.552 182.824 134.79 182.745 134.948 182.67L135.13 183.762C134.972 183.846 134.692 183.935 134.29 184.028C133.898 184.121 133.45 184.168 132.946 184.168C132.312 184.168 131.761 184.075 131.294 183.888C130.837 183.692 130.459 183.426 130.16 183.09C129.862 182.754 129.638 182.357 129.488 181.9C129.348 181.433 129.278 180.925 129.278 180.374ZM134.276 179.66C134.286 179.072 134.136 178.591 133.828 178.218C133.53 177.835 133.114 177.644 132.582 177.644C132.284 177.644 132.018 177.705 131.784 177.826C131.56 177.938 131.369 178.087 131.21 178.274C131.052 178.461 130.926 178.675 130.832 178.918C130.748 179.161 130.692 179.408 130.664 179.66H134.276Z" fill="#1E212C"/>
<defs>
<clipPath id="clip0_2111_1788">
<rect width="148" height="148" fill="white"/>
</clipPath>
</defs>
</svg>
