<svg width="148" height="189" viewBox="0 0 148 189" fill="none" xmlns="http://www.w3.org/2000/svg">
<g clip-path="url(#clip0_2111_1782)">
<circle opacity="0.3" cx="74" cy="74" r="71" stroke="#5A87FC" stroke-width="6"/>
<path d="M74 142C111.555 142 142 111.555 142 74C142 36.4446 111.555 6 74 6V0C114.869 0 148 33.1309 148 74C148 114.869 114.869 148 74 148C33.1309 148 0 114.869 0 74C0 62.1418 2.78922 50.935 7.74738 41L13.2072 43.5C8.59608 52.673 6 63.0333 6 74C6 111.555 36.4446 142 74 142Z" fill="#5A87FC"/>
<path d="M46.373 74.096C46.8637 74.096 47.3757 74.0533 47.909 73.968C48.4423 73.8613 48.837 73.7227 49.093 73.552V73.264C49.093 73.1787 49.093 73.0933 49.093 73.008C49.1143 72.9227 49.125 72.848 49.125 72.784C49.1037 72.016 49.0397 71.3013 48.933 70.64C48.8263 69.9573 48.645 69.3707 48.389 68.88C48.133 68.368 47.781 67.9733 47.333 67.696C46.9063 67.3973 46.373 67.248 45.733 67.248C45.221 67.248 44.773 67.3547 44.389 67.568C44.005 67.7813 43.6957 68.0587 43.461 68.4C43.2263 68.7413 43.045 69.1147 42.917 69.52C42.8103 69.9253 42.757 70.32 42.757 70.704C42.757 71.856 43.0343 72.7093 43.589 73.264C44.165 73.8187 45.093 74.096 46.373 74.096ZM48.709 77.2C48.261 77.4133 47.7597 77.5733 47.205 77.68C46.6717 77.7653 46.213 77.808 45.829 77.808C44.4423 77.808 43.2583 77.648 42.277 77.328C41.2957 76.9867 40.485 76.5173 39.845 75.92C39.2263 75.3013 38.7677 74.5653 38.469 73.712C38.1703 72.8587 38.021 71.92 38.021 70.896C38.021 70.0427 38.1597 69.168 38.437 68.272C38.7357 67.376 39.1943 66.5653 39.813 65.84C40.4317 65.0933 41.2103 64.4853 42.149 64.016C43.109 63.5253 44.261 63.28 45.605 63.28C48.357 63.28 50.4263 64.1333 51.813 65.84C53.221 67.5253 53.925 69.9573 53.925 73.136C53.925 75.2267 53.6477 77.072 53.093 78.672C52.5597 80.272 51.717 81.616 50.565 82.704C49.4343 83.792 47.9837 84.624 46.213 85.2C44.4423 85.7547 42.341 86.0427 39.909 86.064C39.8877 85.3813 39.8557 84.72 39.813 84.08C39.7703 83.44 39.7277 82.7787 39.685 82.096C40.901 82.0747 41.9997 81.9893 42.981 81.84C43.9623 81.6693 44.8263 81.4027 45.573 81.04C46.3197 80.656 46.949 80.1547 47.461 79.536C47.9943 78.9173 48.4103 78.1387 48.709 77.2ZM65.5205 69.648C64.6885 70.736 63.8032 71.92 62.8645 73.2C61.9258 74.48 61.1365 75.792 60.4965 77.136H65.5205V69.648ZM70.1925 63.824V77.136H72.5605V81.04H70.1925V86H65.5205V81.04H55.9525V77.552C56.4218 76.6133 57.0085 75.5573 57.7125 74.384C58.4165 73.1893 59.1952 71.9733 60.0485 70.736C60.9232 69.4773 61.8405 68.2507 62.8005 67.056C63.7605 65.8613 64.7205 64.784 65.6805 63.824H70.1925ZM85.02 79.472C85.02 78.8533 84.8813 78.3093 84.604 77.84C84.3267 77.3493 83.8467 76.944 83.164 76.624C82.4813 76.304 81.564 76.0587 80.412 75.888C79.26 75.7173 77.8093 75.632 76.06 75.632C76.2947 73.648 76.4867 71.632 76.636 69.584C76.7853 67.536 76.9027 65.616 76.988 63.824H88.988V67.824H80.988C80.9453 68.592 80.892 69.3387 80.828 70.064C80.7853 70.768 80.732 71.3867 80.668 71.92C83.7827 72.1333 86.076 72.8693 87.548 74.128C89.0413 75.3653 89.788 77.0933 89.788 79.312C89.788 80.336 89.6067 81.2853 89.244 82.16C88.8813 83.0347 88.3373 83.792 87.612 84.432C86.8867 85.072 85.9693 85.5733 84.86 85.936C83.772 86.2987 82.492 86.48 81.02 86.48C80.444 86.48 79.836 86.4373 79.196 86.352C78.5773 86.288 77.9693 86.192 77.372 86.064C76.796 85.9573 76.2733 85.84 75.804 85.712C75.3347 85.584 74.972 85.456 74.716 85.328L75.58 81.392C76.1133 81.6267 76.8173 81.8613 77.692 82.096C78.5667 82.3093 79.612 82.416 80.828 82.416C82.3 82.416 83.3667 82.128 84.028 81.552C84.6893 80.9547 85.02 80.2613 85.02 79.472ZM107.56 69.648C107.56 70.4587 107.4 71.2373 107.08 71.984C106.76 72.7307 106.344 73.456 105.832 74.16C105.32 74.8427 104.744 75.504 104.104 76.144C103.464 76.784 102.834 77.392 102.216 77.968C101.896 78.2667 101.544 78.608 101.16 78.992C100.797 79.3547 100.445 79.728 100.104 80.112C99.7622 80.496 99.4528 80.8587 99.1755 81.2C98.9195 81.52 98.7595 81.7867 98.6955 82H108.232V86H93.4475C93.4048 85.7653 93.3835 85.4667 93.3835 85.104C93.3835 84.7413 93.3835 84.4853 93.3835 84.336C93.3835 83.312 93.5435 82.3733 93.8635 81.52C94.2048 80.6667 94.6422 79.8773 95.1755 79.152C95.7088 78.4053 96.3062 77.712 96.9675 77.072C97.6502 76.432 98.3222 75.792 98.9835 75.152C99.4955 74.6613 99.9755 74.2027 100.424 73.776C100.872 73.328 101.266 72.9013 101.608 72.496C101.949 72.0693 102.216 71.6533 102.408 71.248C102.6 70.8213 102.696 70.3947 102.696 69.968C102.696 69.0293 102.429 68.368 101.896 67.984C101.362 67.6 100.701 67.408 99.9115 67.408C99.3355 67.408 98.7915 67.504 98.2795 67.696C97.7888 67.8667 97.3302 68.08 96.9035 68.336C96.4982 68.5707 96.1462 68.816 95.8475 69.072C95.5488 69.3067 95.3248 69.4987 95.1755 69.648L92.8075 66.32C93.7462 65.4453 94.8342 64.7307 96.0715 64.176C97.3302 63.6 98.6742 63.312 100.104 63.312C101.405 63.312 102.525 63.4613 103.464 63.76C104.402 64.0587 105.17 64.4853 105.768 65.04C106.386 65.5733 106.834 66.2347 107.112 67.024C107.41 67.792 107.56 68.6667 107.56 69.648Z" fill="#1E212C"/>
</g>
<path d="M14.6389 177.42C14.2469 178.671 13.8502 179.828 13.4489 180.892C13.0476 181.956 12.6462 182.992 12.2449 184H10.8869C10.3922 182.572 9.95357 181.065 9.57091 179.478C9.19757 177.891 8.84757 176.165 8.52091 174.298H9.94891C10.0796 175.026 10.2149 175.754 10.3549 176.482C10.4949 177.21 10.6396 177.919 10.7889 178.61C10.9382 179.291 11.0876 179.945 11.2369 180.57C11.3862 181.195 11.5402 181.774 11.6989 182.306C12.0722 181.326 12.4689 180.253 12.8889 179.086C13.3089 177.91 13.7009 176.697 14.0649 175.446H15.2409C15.6049 176.697 16.0016 177.91 16.4309 179.086C16.8602 180.253 17.2616 181.326 17.6349 182.306C17.7842 181.783 17.9336 181.209 18.0829 180.584C18.2322 179.959 18.3769 179.305 18.5169 178.624C18.6662 177.933 18.8109 177.224 18.9509 176.496C19.0909 175.759 19.2262 175.026 19.3569 174.298H20.7429C20.4069 176.165 20.0476 177.891 19.6649 179.478C19.2916 181.065 18.8622 182.572 18.3769 184H17.0189C16.6082 182.992 16.2069 181.956 15.8149 180.892C15.4229 179.828 15.0309 178.671 14.6389 177.42ZM28.3624 180.36C28.3624 180.939 28.2784 181.461 28.1104 181.928C27.9424 182.395 27.7044 182.796 27.3964 183.132C27.0977 183.468 26.7384 183.729 26.3184 183.916C25.8984 184.093 25.4411 184.182 24.9464 184.182C24.4517 184.182 23.9944 184.093 23.5744 183.916C23.1544 183.729 22.7904 183.468 22.4824 183.132C22.1837 182.796 21.9504 182.395 21.7824 181.928C21.6144 181.461 21.5304 180.939 21.5304 180.36C21.5304 179.791 21.6144 179.273 21.7824 178.806C21.9504 178.33 22.1837 177.924 22.4824 177.588C22.7904 177.252 23.1544 176.995 23.5744 176.818C23.9944 176.631 24.4517 176.538 24.9464 176.538C25.4411 176.538 25.8984 176.631 26.3184 176.818C26.7384 176.995 27.0977 177.252 27.3964 177.588C27.7044 177.924 27.9424 178.33 28.1104 178.806C28.2784 179.273 28.3624 179.791 28.3624 180.36ZM27.0044 180.36C27.0044 179.539 26.8177 178.89 26.4444 178.414C26.0804 177.929 25.5811 177.686 24.9464 177.686C24.3117 177.686 23.8077 177.929 23.4344 178.414C23.0704 178.89 22.8884 179.539 22.8884 180.36C22.8884 181.181 23.0704 181.835 23.4344 182.32C23.8077 182.796 24.3117 183.034 24.9464 183.034C25.5811 183.034 26.0804 182.796 26.4444 182.32C26.8177 181.835 27.0044 181.181 27.0044 180.36ZM32.8822 176.566C32.9942 176.566 33.1202 176.575 33.2602 176.594C33.4096 176.603 33.5542 176.622 33.6942 176.65C33.8342 176.669 33.9602 176.692 34.0722 176.72C34.1936 176.739 34.2822 176.757 34.3382 176.776L34.1142 177.91C34.0116 177.873 33.8389 177.831 33.5962 177.784C33.3629 177.728 33.0596 177.7 32.6862 177.7C32.4436 177.7 32.2009 177.728 31.9582 177.784C31.7249 177.831 31.5709 177.863 31.4962 177.882V184H30.1942V177.028C30.5022 176.916 30.8849 176.813 31.3422 176.72C31.7996 176.617 32.3129 176.566 32.8822 176.566ZM38.2266 179.996C38.5066 180.211 38.8006 180.477 39.1086 180.794C39.4259 181.111 39.7339 181.457 40.0326 181.83C40.3406 182.194 40.6299 182.567 40.9006 182.95C41.1713 183.323 41.3999 183.673 41.5866 184H40.0606C39.8646 183.673 39.6359 183.342 39.3746 183.006C39.1226 182.661 38.8566 182.334 38.5766 182.026C38.2966 181.709 38.0119 181.419 37.7226 181.158C37.4333 180.897 37.1579 180.677 36.8966 180.5V184H35.5946V173.36L36.8966 173.136V179.772C37.1206 179.548 37.3679 179.301 37.6386 179.03C37.9093 178.759 38.1753 178.484 38.4366 178.204C38.6979 177.924 38.9453 177.658 39.1786 177.406C39.4119 177.145 39.6126 176.916 39.7806 176.72H41.3066C41.0919 176.953 40.8586 177.21 40.6066 177.49C40.3546 177.77 40.0933 178.055 39.8226 178.344C39.5519 178.624 39.2766 178.909 38.9966 179.198C38.7259 179.478 38.4693 179.744 38.2266 179.996ZM44.2111 184H42.9091V176.72H44.2111V184ZM43.5531 175.404C43.3197 175.404 43.1191 175.329 42.9511 175.18C42.7924 175.021 42.7131 174.811 42.7131 174.55C42.7131 174.289 42.7924 174.083 42.9511 173.934C43.1191 173.775 43.3197 173.696 43.5531 173.696C43.7864 173.696 43.9824 173.775 44.1411 173.934C44.3091 174.083 44.3931 174.289 44.3931 174.55C44.3931 174.811 44.3091 175.021 44.1411 175.18C43.9824 175.329 43.7864 175.404 43.5531 175.404ZM46.4501 176.93C46.7487 176.855 47.1454 176.776 47.6401 176.692C48.1347 176.608 48.7041 176.566 49.3481 176.566C49.9267 176.566 50.4074 176.65 50.7901 176.818C51.1727 176.977 51.4761 177.205 51.7001 177.504C51.9334 177.793 52.0967 178.143 52.1901 178.554C52.2834 178.965 52.3301 179.417 52.3301 179.912V184H51.0281V180.192C51.0281 179.744 50.9954 179.361 50.9301 179.044C50.8741 178.727 50.7761 178.47 50.6361 178.274C50.4961 178.078 50.3094 177.938 50.0761 177.854C49.8427 177.761 49.5534 177.714 49.2081 177.714C49.0681 177.714 48.9234 177.719 48.7741 177.728C48.6247 177.737 48.4801 177.751 48.3401 177.77C48.2094 177.779 48.0881 177.793 47.9761 177.812C47.8734 177.831 47.7987 177.845 47.7521 177.854V184H46.4501V176.93ZM59.0531 183.272C58.9411 183.347 58.7218 183.445 58.3951 183.566C58.0778 183.678 57.7045 183.734 57.2751 183.734C56.8365 183.734 56.4211 183.664 56.0291 183.524C55.6465 183.384 55.3105 183.169 55.0211 182.88C54.7318 182.581 54.5031 182.213 54.3351 181.774C54.1671 181.335 54.0831 180.813 54.0831 180.206C54.0831 179.674 54.1625 179.189 54.3211 178.75C54.4798 178.302 54.7085 177.919 55.0071 177.602C55.3151 177.275 55.6885 177.023 56.1271 176.846C56.5658 176.659 57.0605 176.566 57.6111 176.566C58.2178 176.566 58.7451 176.613 59.1931 176.706C59.6505 176.79 60.0331 176.869 60.3411 176.944V183.44C60.3411 184.56 60.0518 185.372 59.4731 185.876C58.8945 186.38 58.0171 186.632 56.8411 186.632C56.3838 186.632 55.9498 186.595 55.5391 186.52C55.1378 186.445 54.7878 186.357 54.4891 186.254L54.7271 185.12C54.9885 185.223 55.3058 185.311 55.6791 185.386C56.0618 185.47 56.4585 185.512 56.8691 185.512C57.6438 185.512 58.1991 185.358 58.5351 185.05C58.8805 184.742 59.0531 184.252 59.0531 183.58V183.272ZM59.0391 177.868C58.9085 177.831 58.7311 177.798 58.5071 177.77C58.2925 177.733 57.9985 177.714 57.6251 177.714C56.9251 177.714 56.3838 177.943 56.0011 178.4C55.6278 178.857 55.4411 179.464 55.4411 180.22C55.4411 180.64 55.4925 180.999 55.5951 181.298C55.7071 181.597 55.8518 181.844 56.0291 182.04C56.2158 182.236 56.4258 182.381 56.6591 182.474C56.9018 182.567 57.1491 182.614 57.4011 182.614C57.7465 182.614 58.0638 182.567 58.3531 182.474C58.6425 182.371 58.8711 182.255 59.0391 182.124V177.868ZM65.8231 184V173.36L67.1251 173.136V176.86C67.3678 176.767 67.6245 176.697 67.8951 176.65C68.1751 176.594 68.4505 176.566 68.7211 176.566C69.2998 176.566 69.7805 176.65 70.1631 176.818C70.5458 176.977 70.8491 177.205 71.0731 177.504C71.3065 177.793 71.4698 178.143 71.5631 178.554C71.6565 178.965 71.7031 179.417 71.7031 179.912V184H70.4011V180.192C70.4011 179.744 70.3685 179.361 70.3031 179.044C70.2471 178.727 70.1491 178.47 70.0091 178.274C69.8691 178.078 69.6825 177.938 69.4491 177.854C69.2158 177.761 68.9265 177.714 68.5811 177.714C68.4411 177.714 68.2965 177.723 68.1471 177.742C67.9978 177.761 67.8531 177.784 67.7131 177.812C67.5825 177.831 67.4611 177.854 67.3491 177.882C67.2465 177.91 67.1718 177.933 67.1251 177.952V184H65.8231ZM80.2472 180.36C80.2472 180.939 80.1632 181.461 79.9952 181.928C79.8272 182.395 79.5892 182.796 79.2812 183.132C78.9825 183.468 78.6232 183.729 78.2032 183.916C77.7832 184.093 77.3258 184.182 76.8312 184.182C76.3365 184.182 75.8792 184.093 75.4592 183.916C75.0392 183.729 74.6752 183.468 74.3672 183.132C74.0685 182.796 73.8352 182.395 73.6672 181.928C73.4992 181.461 73.4152 180.939 73.4152 180.36C73.4152 179.791 73.4992 179.273 73.6672 178.806C73.8352 178.33 74.0685 177.924 74.3672 177.588C74.6752 177.252 75.0392 176.995 75.4592 176.818C75.8792 176.631 76.3365 176.538 76.8312 176.538C77.3258 176.538 77.7832 176.631 78.2032 176.818C78.6232 176.995 78.9825 177.252 79.2812 177.588C79.5892 177.924 79.8272 178.33 79.9952 178.806C80.1632 179.273 80.2472 179.791 80.2472 180.36ZM78.8892 180.36C78.8892 179.539 78.7025 178.89 78.3292 178.414C77.9652 177.929 77.4658 177.686 76.8312 177.686C76.1965 177.686 75.6925 177.929 75.3192 178.414C74.9552 178.89 74.7732 179.539 74.7732 180.36C74.7732 181.181 74.9552 181.835 75.3192 182.32C75.6925 182.796 76.1965 183.034 76.8312 183.034C77.4658 183.034 77.9652 182.796 78.3292 182.32C78.7025 181.835 78.8892 181.181 78.8892 180.36ZM87.875 183.79C87.5763 183.865 87.1797 183.944 86.685 184.028C86.1997 184.112 85.635 184.154 84.991 184.154C84.431 184.154 83.9597 184.075 83.577 183.916C83.1943 183.748 82.8863 183.515 82.653 183.216C82.4197 182.917 82.2517 182.567 82.149 182.166C82.0463 181.755 81.995 181.303 81.995 180.808V176.72H83.297V180.528C83.297 181.415 83.437 182.049 83.717 182.432C83.997 182.815 84.4683 183.006 85.131 183.006C85.271 183.006 85.4157 183.001 85.565 182.992C85.7143 182.983 85.8543 182.973 85.985 182.964C86.1157 182.945 86.2323 182.931 86.335 182.922C86.447 182.903 86.5263 182.885 86.573 182.866V176.72H87.875V183.79ZM92.806 176.566C92.918 176.566 93.044 176.575 93.184 176.594C93.3334 176.603 93.478 176.622 93.618 176.65C93.758 176.669 93.884 176.692 93.996 176.72C94.1174 176.739 94.206 176.757 94.262 176.776L94.038 177.91C93.9354 177.873 93.7627 177.831 93.52 177.784C93.2867 177.728 92.9834 177.7 92.61 177.7C92.3674 177.7 92.1247 177.728 91.882 177.784C91.6487 177.831 91.4947 177.863 91.42 177.882V184H90.118V177.028C90.426 176.916 90.8087 176.813 91.266 176.72C91.7234 176.617 92.2367 176.566 92.806 176.566ZM97.2124 183.062C97.7444 183.062 98.1364 182.992 98.3884 182.852C98.6498 182.712 98.7804 182.488 98.7804 182.18C98.7804 181.863 98.6544 181.611 98.4024 181.424C98.1504 181.237 97.7351 181.027 97.1564 180.794C96.8764 180.682 96.6058 180.57 96.3444 180.458C96.0924 180.337 95.8731 180.197 95.6864 180.038C95.4998 179.879 95.3504 179.688 95.2384 179.464C95.1264 179.24 95.0704 178.965 95.0704 178.638C95.0704 177.994 95.3084 177.485 95.7844 177.112C96.2604 176.729 96.9091 176.538 97.7304 176.538C97.9358 176.538 98.1411 176.552 98.3464 176.58C98.5518 176.599 98.7431 176.627 98.9204 176.664C99.0978 176.692 99.2518 176.725 99.3824 176.762C99.5224 176.799 99.6298 176.832 99.7044 176.86L99.4664 177.98C99.3264 177.905 99.1071 177.831 98.8084 177.756C98.5098 177.672 98.1504 177.63 97.7304 177.63C97.3664 177.63 97.0491 177.705 96.7784 177.854C96.5078 177.994 96.3724 178.218 96.3724 178.526C96.3724 178.685 96.4004 178.825 96.4564 178.946C96.5218 179.067 96.6151 179.179 96.7364 179.282C96.8671 179.375 97.0258 179.464 97.2124 179.548C97.3991 179.632 97.6231 179.721 97.8844 179.814C98.2298 179.945 98.5378 180.075 98.8084 180.206C99.0791 180.327 99.3078 180.472 99.4944 180.64C99.6904 180.808 99.8398 181.013 99.9424 181.256C100.045 181.489 100.096 181.779 100.096 182.124C100.096 182.796 99.8444 183.305 99.3404 183.65C98.8458 183.995 98.1364 184.168 97.2124 184.168C96.5684 184.168 96.0644 184.112 95.7004 184C95.3364 183.897 95.0891 183.818 94.9584 183.762L95.1964 182.642C95.3458 182.698 95.5838 182.782 95.9104 182.894C96.2371 183.006 96.6711 183.062 97.2124 183.062ZM106.701 183.062C107.233 183.062 107.625 182.992 107.877 182.852C108.138 182.712 108.269 182.488 108.269 182.18C108.269 181.863 108.143 181.611 107.891 181.424C107.639 181.237 107.223 181.027 106.645 180.794C106.365 180.682 106.094 180.57 105.833 180.458C105.581 180.337 105.361 180.197 105.175 180.038C104.988 179.879 104.839 179.688 104.727 179.464C104.615 179.24 104.559 178.965 104.559 178.638C104.559 177.994 104.797 177.485 105.273 177.112C105.749 176.729 106.397 176.538 107.219 176.538C107.424 176.538 107.629 176.552 107.835 176.58C108.04 176.599 108.231 176.627 108.409 176.664C108.586 176.692 108.74 176.725 108.871 176.762C109.011 176.799 109.118 176.832 109.193 176.86L108.955 177.98C108.815 177.905 108.595 177.831 108.297 177.756C107.998 177.672 107.639 177.63 107.219 177.63C106.855 177.63 106.537 177.705 106.267 177.854C105.996 177.994 105.861 178.218 105.861 178.526C105.861 178.685 105.889 178.825 105.945 178.946C106.01 179.067 106.103 179.179 106.225 179.282C106.355 179.375 106.514 179.464 106.701 179.548C106.887 179.632 107.111 179.721 107.373 179.814C107.718 179.945 108.026 180.075 108.297 180.206C108.567 180.327 108.796 180.472 108.983 180.64C109.179 180.808 109.328 181.013 109.431 181.256C109.533 181.489 109.585 181.779 109.585 182.124C109.585 182.796 109.333 183.305 108.829 183.65C108.334 183.995 107.625 184.168 106.701 184.168C106.057 184.168 105.553 184.112 105.189 184C104.825 183.897 104.577 183.818 104.447 183.762L104.685 182.642C104.834 182.698 105.072 182.782 105.399 182.894C105.725 183.006 106.159 183.062 106.701 183.062ZM116.309 180.374C116.309 179.525 116.099 178.871 115.679 178.414C115.259 177.957 114.699 177.728 113.999 177.728C113.607 177.728 113.299 177.742 113.075 177.77C112.86 177.798 112.687 177.831 112.557 177.868V182.46C112.715 182.591 112.944 182.717 113.243 182.838C113.541 182.959 113.868 183.02 114.223 183.02C114.596 183.02 114.913 182.955 115.175 182.824C115.445 182.684 115.665 182.497 115.833 182.264C116.001 182.021 116.122 181.741 116.197 181.424C116.271 181.097 116.309 180.747 116.309 180.374ZM117.667 180.374C117.667 180.925 117.592 181.433 117.443 181.9C117.303 182.367 117.093 182.768 116.813 183.104C116.533 183.44 116.187 183.701 115.777 183.888C115.375 184.075 114.913 184.168 114.391 184.168C113.971 184.168 113.597 184.112 113.271 184C112.953 183.888 112.715 183.781 112.557 183.678V186.59H111.255V176.944C111.563 176.869 111.945 176.79 112.403 176.706C112.869 176.613 113.406 176.566 114.013 176.566C114.573 176.566 115.077 176.655 115.525 176.832C115.973 177.009 116.355 177.261 116.673 177.588C116.99 177.915 117.233 178.316 117.401 178.792C117.578 179.259 117.667 179.786 117.667 180.374ZM119.093 180.374C119.093 179.73 119.186 179.17 119.373 178.694C119.56 178.209 119.807 177.807 120.115 177.49C120.423 177.173 120.778 176.935 121.179 176.776C121.58 176.617 121.991 176.538 122.411 176.538C123.391 176.538 124.142 176.846 124.665 177.462C125.188 178.069 125.449 178.997 125.449 180.248C125.449 180.304 125.449 180.379 125.449 180.472C125.449 180.556 125.444 180.635 125.435 180.71H120.451C120.507 181.466 120.726 182.04 121.109 182.432C121.492 182.824 122.089 183.02 122.901 183.02C123.358 183.02 123.741 182.983 124.049 182.908C124.366 182.824 124.604 182.745 124.763 182.67L124.945 183.762C124.786 183.846 124.506 183.935 124.105 184.028C123.713 184.121 123.265 184.168 122.761 184.168C122.126 184.168 121.576 184.075 121.109 183.888C120.652 183.692 120.274 183.426 119.975 183.09C119.676 182.754 119.452 182.357 119.303 181.9C119.163 181.433 119.093 180.925 119.093 180.374ZM124.091 179.66C124.1 179.072 123.951 178.591 123.643 178.218C123.344 177.835 122.929 177.644 122.397 177.644C122.098 177.644 121.832 177.705 121.599 177.826C121.375 177.938 121.184 178.087 121.025 178.274C120.866 178.461 120.74 178.675 120.647 178.918C120.563 179.161 120.507 179.408 120.479 179.66H124.091ZM127.319 176.93C127.618 176.855 128.015 176.776 128.509 176.692C129.004 176.608 129.573 176.566 130.217 176.566C130.796 176.566 131.277 176.65 131.659 176.818C132.042 176.977 132.345 177.205 132.569 177.504C132.803 177.793 132.966 178.143 133.059 178.554C133.153 178.965 133.199 179.417 133.199 179.912V184H131.897V180.192C131.897 179.744 131.865 179.361 131.799 179.044C131.743 178.727 131.645 178.47 131.505 178.274C131.365 178.078 131.179 177.938 130.945 177.854C130.712 177.761 130.423 177.714 130.077 177.714C129.937 177.714 129.793 177.719 129.643 177.728C129.494 177.737 129.349 177.751 129.209 177.77C129.079 177.779 128.957 177.793 128.845 177.812C128.743 177.831 128.668 177.845 128.621 177.854V184H127.319V176.93ZM136.576 176.72H139.334V177.812H136.576V181.172C136.576 181.536 136.604 181.839 136.66 182.082C136.716 182.315 136.8 182.502 136.912 182.642C137.024 182.773 137.164 182.866 137.332 182.922C137.5 182.978 137.696 183.006 137.92 183.006C138.312 183.006 138.625 182.964 138.858 182.88C139.101 182.787 139.269 182.721 139.362 182.684L139.614 183.762C139.484 183.827 139.255 183.907 138.928 184C138.602 184.103 138.228 184.154 137.808 184.154C137.314 184.154 136.903 184.093 136.576 183.972C136.259 183.841 136.002 183.65 135.806 183.398C135.61 183.146 135.47 182.838 135.386 182.474C135.312 182.101 135.274 181.671 135.274 181.186V174.69L136.576 174.466V176.72Z" fill="#1E212C"/>
<defs>
<clipPath id="clip0_2111_1782">
<rect width="148" height="148" fill="white"/>
</clipPath>
</defs>
</svg>
