<svg width="148" height="189" viewBox="0 0 148 189" fill="none" xmlns="http://www.w3.org/2000/svg">
<g clip-path="url(#clip0_2111_1777)">
<circle cx="74" cy="74" r="71" stroke="#03CEA4" stroke-width="6"/>
<path d="M33.2713 68.432C33.8899 68.176 34.5299 67.888 35.1913 67.568C35.8739 67.2267 36.5353 66.864 37.1753 66.48C37.8153 66.0747 38.4233 65.6587 38.9993 65.232C39.5966 64.784 40.1299 64.3147 40.5993 63.824H43.9273V86H39.1593V70.032C38.5193 70.4587 37.8046 70.8533 37.0153 71.216C36.2259 71.5573 35.4579 71.856 34.7113 72.112L33.2713 68.432ZM66.3068 74.864C66.3068 78.5973 65.5921 81.4667 64.1628 83.472C62.7548 85.456 60.8028 86.448 58.3068 86.448C55.8108 86.448 53.8481 85.456 52.4188 83.472C51.0108 81.4667 50.3068 78.5973 50.3068 74.864C50.3068 73.008 50.4881 71.3653 50.8508 69.936C51.2348 68.5067 51.7788 67.3013 52.4828 66.32C53.1868 65.3387 54.0294 64.592 55.0108 64.08C55.9921 63.568 57.0908 63.312 58.3068 63.312C60.8028 63.312 62.7548 64.3147 64.1628 66.32C65.5921 68.304 66.3068 71.152 66.3068 74.864ZM61.4428 74.864C61.4428 73.7547 61.3894 72.752 61.2828 71.856C61.1761 70.9387 61.0054 70.1493 60.7708 69.488C60.5361 68.8267 60.2161 68.3147 59.8108 67.952C59.4054 67.5893 58.9041 67.408 58.3068 67.408C57.7094 67.408 57.2081 67.5893 56.8028 67.952C56.4188 68.3147 56.0988 68.8267 55.8428 69.488C55.6081 70.1493 55.4374 70.9387 55.3308 71.856C55.2241 72.752 55.1708 73.7547 55.1708 74.864C55.1708 75.9733 55.2241 76.9867 55.3308 77.904C55.4374 78.8213 55.6081 79.6107 55.8428 80.272C56.0988 80.9333 56.4188 81.4453 56.8028 81.808C57.2081 82.1707 57.7094 82.352 58.3068 82.352C58.9041 82.352 59.4054 82.1707 59.8108 81.808C60.2161 81.4453 60.5361 80.9333 60.7708 80.272C61.0054 79.6107 61.1761 78.8213 61.2828 77.904C61.3894 76.9867 61.4428 75.9733 61.4428 74.864ZM84.4943 74.864C84.4943 78.5973 83.7796 81.4667 82.3503 83.472C80.9423 85.456 78.9903 86.448 76.4943 86.448C73.9983 86.448 72.0356 85.456 70.6063 83.472C69.1983 81.4667 68.4943 78.5973 68.4943 74.864C68.4943 73.008 68.6756 71.3653 69.0383 69.936C69.4223 68.5067 69.9663 67.3013 70.6703 66.32C71.3743 65.3387 72.2169 64.592 73.1983 64.08C74.1796 63.568 75.2783 63.312 76.4943 63.312C78.9903 63.312 80.9423 64.3147 82.3503 66.32C83.7796 68.304 84.4943 71.152 84.4943 74.864ZM79.6303 74.864C79.6303 73.7547 79.5769 72.752 79.4703 71.856C79.3636 70.9387 79.1929 70.1493 78.9583 69.488C78.7236 68.8267 78.4036 68.3147 77.9983 67.952C77.5929 67.5893 77.0916 67.408 76.4943 67.408C75.8969 67.408 75.3956 67.5893 74.9903 67.952C74.6063 68.3147 74.2863 68.8267 74.0303 69.488C73.7956 70.1493 73.6249 70.9387 73.5183 71.856C73.4116 72.752 73.3583 73.7547 73.3583 74.864C73.3583 75.9733 73.4116 76.9867 73.5183 77.904C73.6249 78.8213 73.7956 79.6107 74.0303 80.272C74.2863 80.9333 74.6063 81.4453 74.9903 81.808C75.3956 82.1707 75.8969 82.352 76.4943 82.352C77.0916 82.352 77.5929 82.1707 77.9983 81.808C78.4036 81.4453 78.7236 80.9333 78.9583 80.272C79.1929 79.6107 79.3636 78.8213 79.4703 77.904C79.5769 76.9867 79.6303 75.9733 79.6303 74.864ZM98.0418 69.52C98.0418 71.5253 97.5298 73.0613 96.5058 74.128C95.4818 75.1947 94.1058 75.728 92.3778 75.728C90.6498 75.728 89.2738 75.1947 88.2498 74.128C87.2258 73.0613 86.7138 71.5253 86.7138 69.52C86.7138 67.5147 87.2258 65.9787 88.2498 64.912C89.2738 63.8453 90.6498 63.312 92.3778 63.312C94.1058 63.312 95.4818 63.8453 96.5058 64.912C97.5298 65.9787 98.0418 67.5147 98.0418 69.52ZM94.4258 69.52C94.4258 68.432 94.2338 67.6427 93.8498 67.152C93.4658 66.6613 92.9751 66.416 92.3778 66.416C91.7591 66.416 91.2578 66.6613 90.8738 67.152C90.5111 67.6427 90.3298 68.432 90.3298 69.52C90.3298 70.608 90.5111 71.408 90.8738 71.92C91.2578 72.4107 91.7591 72.656 92.3778 72.656C92.9751 72.656 93.4658 72.4107 93.8498 71.92C94.2338 71.408 94.4258 70.608 94.4258 69.52ZM104.282 63.824H108.73L96.2178 86H91.7698L104.282 63.824ZM113.85 80.304C113.85 82.3093 113.338 83.8453 112.314 84.912C111.29 85.9787 109.914 86.512 108.186 86.512C106.458 86.512 105.082 85.9787 104.058 84.912C103.034 83.8453 102.522 82.3093 102.522 80.304C102.522 78.2987 103.034 76.7627 104.058 75.696C105.082 74.6293 106.458 74.096 108.186 74.096C109.914 74.096 111.29 74.6293 112.314 75.696C113.338 76.7627 113.85 78.2987 113.85 80.304ZM110.234 80.304C110.234 79.216 110.042 78.4267 109.658 77.936C109.274 77.4453 108.783 77.2 108.186 77.2C107.567 77.2 107.066 77.4453 106.682 77.936C106.319 78.4267 106.138 79.216 106.138 80.304C106.138 81.392 106.319 82.192 106.682 82.704C107.066 83.1947 107.567 83.44 108.186 83.44C108.783 83.44 109.274 83.1947 109.658 82.704C110.042 82.192 110.234 81.392 110.234 80.304Z" fill="#1E212C"/>
</g>
<path d="M15.7842 183.034C17.2028 183.034 17.9122 182.549 17.9122 181.578C17.9122 181.279 17.8468 181.027 17.7162 180.822C17.5948 180.607 17.4268 180.425 17.2122 180.276C16.9975 180.117 16.7502 179.982 16.4702 179.87C16.1995 179.758 15.9102 179.646 15.6022 179.534C15.2475 179.413 14.9115 179.277 14.5942 179.128C14.2768 178.969 14.0015 178.787 13.7682 178.582C13.5348 178.367 13.3482 178.115 13.2082 177.826C13.0775 177.537 13.0122 177.187 13.0122 176.776C13.0122 175.927 13.3015 175.264 13.8802 174.788C14.4588 174.312 15.2568 174.074 16.2742 174.074C16.8622 174.074 17.3942 174.139 17.8702 174.27C18.3555 174.391 18.7102 174.527 18.9342 174.676L18.5002 175.782C18.3042 175.661 18.0102 175.544 17.6182 175.432C17.2355 175.311 16.7875 175.25 16.2742 175.25C16.0128 175.25 15.7702 175.278 15.5462 175.334C15.3222 175.39 15.1262 175.474 14.9582 175.586C14.7902 175.698 14.6548 175.843 14.5522 176.02C14.4588 176.188 14.4122 176.389 14.4122 176.622C14.4122 176.883 14.4635 177.103 14.5662 177.28C14.6688 177.457 14.8135 177.616 15.0002 177.756C15.1868 177.887 15.4015 178.008 15.6442 178.12C15.8962 178.232 16.1715 178.344 16.4702 178.456C16.8902 178.624 17.2728 178.792 17.6182 178.96C17.9728 179.128 18.2762 179.329 18.5282 179.562C18.7895 179.795 18.9902 180.075 19.1302 180.402C19.2702 180.719 19.3402 181.107 19.3402 181.564C19.3402 182.413 19.0275 183.067 18.4022 183.524C17.7862 183.981 16.9135 184.21 15.7842 184.21C15.4015 184.21 15.0468 184.182 14.7202 184.126C14.4028 184.079 14.1182 184.023 13.8662 183.958C13.6142 183.883 13.3948 183.809 13.2082 183.734C13.0308 183.65 12.8908 183.58 12.7882 183.524L13.1942 182.404C13.4088 182.525 13.7355 182.661 14.1742 182.81C14.6128 182.959 15.1495 183.034 15.7842 183.034ZM26.6933 183.79C26.3947 183.865 25.998 183.944 25.5033 184.028C25.018 184.112 24.4533 184.154 23.8093 184.154C23.2493 184.154 22.778 184.075 22.3953 183.916C22.0127 183.748 21.7047 183.515 21.4713 183.216C21.238 182.917 21.07 182.567 20.9673 182.166C20.8647 181.755 20.8133 181.303 20.8133 180.808V176.72H22.1153V180.528C22.1153 181.415 22.2553 182.049 22.5353 182.432C22.8153 182.815 23.2867 183.006 23.9493 183.006C24.0893 183.006 24.234 183.001 24.3833 182.992C24.5327 182.983 24.6727 182.973 24.8033 182.964C24.934 182.945 25.0507 182.931 25.1533 182.922C25.2653 182.903 25.3447 182.885 25.3913 182.866V176.72H26.6933V183.79ZM32.1004 184.168C31.5124 184.168 30.9944 184.075 30.5464 183.888C30.1077 183.701 29.7344 183.44 29.4264 183.104C29.1277 182.768 28.9037 182.371 28.7544 181.914C28.6051 181.447 28.5304 180.934 28.5304 180.374C28.5304 179.814 28.6097 179.301 28.7684 178.834C28.9364 178.367 29.1697 177.966 29.4684 177.63C29.7671 177.285 30.1311 177.019 30.5604 176.832C30.9991 176.636 31.4844 176.538 32.0164 176.538C32.3431 176.538 32.6697 176.566 32.9964 176.622C33.3231 176.678 33.6357 176.767 33.9344 176.888L33.6404 177.994C33.4444 177.901 33.2157 177.826 32.9544 177.77C32.7024 177.714 32.4317 177.686 32.1424 177.686C31.4144 177.686 30.8544 177.915 30.4624 178.372C30.0797 178.829 29.8884 179.497 29.8884 180.374C29.8884 180.766 29.9304 181.125 30.0144 181.452C30.1077 181.779 30.2477 182.059 30.4344 182.292C30.6304 182.525 30.8777 182.707 31.1764 182.838C31.4751 182.959 31.8391 183.02 32.2684 183.02C32.6137 183.02 32.9264 182.987 33.2064 182.922C33.4864 182.857 33.7057 182.787 33.8644 182.712L34.0464 183.804C33.9717 183.851 33.8644 183.897 33.7244 183.944C33.5844 183.981 33.4257 184.014 33.2484 184.042C33.0711 184.079 32.8797 184.107 32.6744 184.126C32.4784 184.154 32.2871 184.168 32.1004 184.168ZM38.6082 184.168C38.0202 184.168 37.5022 184.075 37.0542 183.888C36.6156 183.701 36.2422 183.44 35.9342 183.104C35.6356 182.768 35.4116 182.371 35.2622 181.914C35.1129 181.447 35.0382 180.934 35.0382 180.374C35.0382 179.814 35.1176 179.301 35.2762 178.834C35.4442 178.367 35.6776 177.966 35.9762 177.63C36.2749 177.285 36.6389 177.019 37.0682 176.832C37.5069 176.636 37.9922 176.538 38.5242 176.538C38.8509 176.538 39.1776 176.566 39.5042 176.622C39.8309 176.678 40.1436 176.767 40.4422 176.888L40.1482 177.994C39.9522 177.901 39.7236 177.826 39.4622 177.77C39.2102 177.714 38.9396 177.686 38.6502 177.686C37.9222 177.686 37.3622 177.915 36.9702 178.372C36.5876 178.829 36.3962 179.497 36.3962 180.374C36.3962 180.766 36.4382 181.125 36.5222 181.452C36.6156 181.779 36.7556 182.059 36.9422 182.292C37.1382 182.525 37.3856 182.707 37.6842 182.838C37.9829 182.959 38.3469 183.02 38.7762 183.02C39.1216 183.02 39.4342 182.987 39.7142 182.922C39.9942 182.857 40.2136 182.787 40.3722 182.712L40.5542 183.804C40.4796 183.851 40.3722 183.897 40.2322 183.944C40.0922 183.981 39.9336 184.014 39.7562 184.042C39.5789 184.079 39.3876 184.107 39.1822 184.126C38.9862 184.154 38.7949 184.168 38.6082 184.168ZM41.546 180.374C41.546 179.73 41.6394 179.17 41.826 178.694C42.0127 178.209 42.26 177.807 42.568 177.49C42.876 177.173 43.2307 176.935 43.632 176.776C44.0334 176.617 44.444 176.538 44.864 176.538C45.844 176.538 46.5954 176.846 47.118 177.462C47.6407 178.069 47.902 178.997 47.902 180.248C47.902 180.304 47.902 180.379 47.902 180.472C47.902 180.556 47.8974 180.635 47.888 180.71H42.904C42.96 181.466 43.1794 182.04 43.562 182.432C43.9447 182.824 44.542 183.02 45.354 183.02C45.8114 183.02 46.194 182.983 46.502 182.908C46.8194 182.824 47.0574 182.745 47.216 182.67L47.398 183.762C47.2394 183.846 46.9594 183.935 46.558 184.028C46.166 184.121 45.718 184.168 45.214 184.168C44.5794 184.168 44.0287 184.075 43.562 183.888C43.1047 183.692 42.7267 183.426 42.428 183.09C42.1294 182.754 41.9054 182.357 41.756 181.9C41.616 181.433 41.546 180.925 41.546 180.374ZM46.544 179.66C46.5534 179.072 46.404 178.591 46.096 178.218C45.7974 177.835 45.382 177.644 44.85 177.644C44.5514 177.644 44.2854 177.705 44.052 177.826C43.828 177.938 43.6367 178.087 43.478 178.274C43.3194 178.461 43.1934 178.675 43.1 178.918C43.016 179.161 42.96 179.408 42.932 179.66H46.544ZM49.3663 180.374C49.3663 179.73 49.4597 179.17 49.6463 178.694C49.833 178.209 50.0803 177.807 50.3883 177.49C50.6963 177.173 51.051 176.935 51.4523 176.776C51.8537 176.617 52.2643 176.538 52.6843 176.538C53.6643 176.538 54.4157 176.846 54.9383 177.462C55.461 178.069 55.7223 178.997 55.7223 180.248C55.7223 180.304 55.7223 180.379 55.7223 180.472C55.7223 180.556 55.7177 180.635 55.7083 180.71H50.7243C50.7803 181.466 50.9997 182.04 51.3823 182.432C51.765 182.824 52.3623 183.02 53.1743 183.02C53.6317 183.02 54.0143 182.983 54.3223 182.908C54.6397 182.824 54.8777 182.745 55.0363 182.67L55.2183 183.762C55.0597 183.846 54.7797 183.935 54.3783 184.028C53.9863 184.121 53.5383 184.168 53.0343 184.168C52.3997 184.168 51.849 184.075 51.3823 183.888C50.925 183.692 50.547 183.426 50.2483 183.09C49.9497 182.754 49.7257 182.357 49.5763 181.9C49.4363 181.433 49.3663 180.925 49.3663 180.374ZM54.3643 179.66C54.3737 179.072 54.2243 178.591 53.9163 178.218C53.6177 177.835 53.2023 177.644 52.6703 177.644C52.3717 177.644 52.1057 177.705 51.8723 177.826C51.6483 177.938 51.457 178.087 51.2983 178.274C51.1397 178.461 51.0137 178.675 50.9203 178.918C50.8363 179.161 50.7803 179.408 50.7523 179.66H54.3643ZM62.2967 178.26C62.138 178.129 61.9093 178.003 61.6107 177.882C61.312 177.761 60.9853 177.7 60.6307 177.7C60.2573 177.7 59.9353 177.77 59.6647 177.91C59.4033 178.041 59.1887 178.227 59.0207 178.47C58.8527 178.703 58.7313 178.983 58.6567 179.31C58.582 179.637 58.5447 179.987 58.5447 180.36C58.5447 181.209 58.7547 181.867 59.1747 182.334C59.5947 182.791 60.1547 183.02 60.8547 183.02C61.2093 183.02 61.5033 183.006 61.7367 182.978C61.9793 182.941 62.166 182.903 62.2967 182.866V178.26ZM62.2967 173.36L63.5987 173.136V183.79C63.3 183.874 62.9173 183.958 62.4507 184.042C61.984 184.126 61.4473 184.168 60.8407 184.168C60.2807 184.168 59.7767 184.079 59.3287 183.902C58.8807 183.725 58.498 183.473 58.1807 183.146C57.8633 182.819 57.616 182.423 57.4387 181.956C57.2707 181.48 57.1867 180.948 57.1867 180.36C57.1867 179.8 57.2567 179.287 57.3967 178.82C57.546 178.353 57.7607 177.952 58.0407 177.616C58.3207 177.28 58.6613 177.019 59.0627 176.832C59.4733 176.645 59.94 176.552 60.4627 176.552C60.8827 176.552 61.2513 176.608 61.5687 176.72C61.8953 176.832 62.138 176.939 62.2967 177.042V173.36ZM65.4308 180.374C65.4308 179.73 65.5241 179.17 65.7108 178.694C65.8975 178.209 66.1448 177.807 66.4528 177.49C66.7608 177.173 67.1155 176.935 67.5168 176.776C67.9181 176.617 68.3288 176.538 68.7488 176.538C69.7288 176.538 70.4801 176.846 71.0028 177.462C71.5255 178.069 71.7868 178.997 71.7868 180.248C71.7868 180.304 71.7868 180.379 71.7868 180.472C71.7868 180.556 71.7821 180.635 71.7728 180.71H66.7888C66.8448 181.466 67.0641 182.04 67.4468 182.432C67.8295 182.824 68.4268 183.02 69.2388 183.02C69.6961 183.02 70.0788 182.983 70.3868 182.908C70.7041 182.824 70.9421 182.745 71.1008 182.67L71.2828 183.762C71.1241 183.846 70.8441 183.935 70.4428 184.028C70.0508 184.121 69.6028 184.168 69.0988 184.168C68.4641 184.168 67.9135 184.075 67.4468 183.888C66.9895 183.692 66.6115 183.426 66.3128 183.09C66.0141 182.754 65.7901 182.357 65.6408 181.9C65.5008 181.433 65.4308 180.925 65.4308 180.374ZM70.4288 179.66C70.4381 179.072 70.2888 178.591 69.9808 178.218C69.6821 177.835 69.2668 177.644 68.7348 177.644C68.4361 177.644 68.1701 177.705 67.9368 177.826C67.7128 177.938 67.5215 178.087 67.3628 178.274C67.2041 178.461 67.0781 178.675 66.9848 178.918C66.9008 179.161 66.8448 179.408 66.8168 179.66H70.4288ZM78.3611 178.26C78.2024 178.129 77.9738 178.003 77.6751 177.882C77.3764 177.761 77.0498 177.7 76.6951 177.7C76.3218 177.7 75.9998 177.77 75.7291 177.91C75.4678 178.041 75.2531 178.227 75.0851 178.47C74.9171 178.703 74.7958 178.983 74.7211 179.31C74.6464 179.637 74.6091 179.987 74.6091 180.36C74.6091 181.209 74.8191 181.867 75.2391 182.334C75.6591 182.791 76.2191 183.02 76.9191 183.02C77.2738 183.02 77.5678 183.006 77.8011 182.978C78.0438 182.941 78.2304 182.903 78.3611 182.866V178.26ZM78.3611 173.36L79.6631 173.136V183.79C79.3644 183.874 78.9818 183.958 78.5151 184.042C78.0484 184.126 77.5118 184.168 76.9051 184.168C76.3451 184.168 75.8411 184.079 75.3931 183.902C74.9451 183.725 74.5624 183.473 74.2451 183.146C73.9278 182.819 73.6804 182.423 73.5031 181.956C73.3351 181.48 73.2511 180.948 73.2511 180.36C73.2511 179.8 73.3211 179.287 73.4611 178.82C73.6104 178.353 73.8251 177.952 74.1051 177.616C74.3851 177.28 74.7258 177.019 75.1271 176.832C75.5378 176.645 76.0044 176.552 76.5271 176.552C76.9471 176.552 77.3158 176.608 77.6331 176.72C77.9598 176.832 78.2024 176.939 78.3611 177.042V173.36ZM90.1955 180.374C90.1955 179.525 89.9855 178.871 89.5655 178.414C89.1455 177.957 88.5855 177.728 87.8855 177.728C87.4935 177.728 87.1855 177.742 86.9615 177.77C86.7468 177.798 86.5742 177.831 86.4435 177.868V182.46C86.6022 182.591 86.8308 182.717 87.1295 182.838C87.4282 182.959 87.7548 183.02 88.1095 183.02C88.4828 183.02 88.8002 182.955 89.0615 182.824C89.3322 182.684 89.5515 182.497 89.7195 182.264C89.8875 182.021 90.0088 181.741 90.0835 181.424C90.1582 181.097 90.1955 180.747 90.1955 180.374ZM91.5535 180.374C91.5535 180.925 91.4788 181.433 91.3295 181.9C91.1895 182.367 90.9795 182.768 90.6995 183.104C90.4195 183.44 90.0742 183.701 89.6635 183.888C89.2622 184.075 88.8002 184.168 88.2775 184.168C87.8575 184.168 87.4842 184.112 87.1575 184C86.8402 183.888 86.6022 183.781 86.4435 183.678V186.59H85.1415V176.944C85.4495 176.869 85.8322 176.79 86.2895 176.706C86.7562 176.613 87.2928 176.566 87.8995 176.566C88.4595 176.566 88.9635 176.655 89.4115 176.832C89.8595 177.009 90.2422 177.261 90.5595 177.588C90.8768 177.915 91.1195 178.316 91.2875 178.792C91.4648 179.259 91.5535 179.786 91.5535 180.374ZM96.0736 176.566C96.1856 176.566 96.3116 176.575 96.4516 176.594C96.601 176.603 96.7456 176.622 96.8856 176.65C97.0256 176.669 97.1516 176.692 97.2636 176.72C97.385 176.739 97.4736 176.757 97.5296 176.776L97.3056 177.91C97.203 177.873 97.0303 177.831 96.7876 177.784C96.5543 177.728 96.251 177.7 95.8776 177.7C95.635 177.7 95.3923 177.728 95.1496 177.784C94.9163 177.831 94.7623 177.863 94.6876 177.882V184H93.3856V177.028C93.6936 176.916 94.0763 176.813 94.5336 176.72C94.991 176.617 95.5043 176.566 96.0736 176.566ZM105.212 180.36C105.212 180.939 105.128 181.461 104.96 181.928C104.792 182.395 104.554 182.796 104.246 183.132C103.947 183.468 103.588 183.729 103.168 183.916C102.748 184.093 102.291 184.182 101.796 184.182C101.301 184.182 100.844 184.093 100.424 183.916C100.004 183.729 99.64 183.468 99.332 183.132C99.0333 182.796 98.8 182.395 98.632 181.928C98.464 181.461 98.38 180.939 98.38 180.36C98.38 179.791 98.464 179.273 98.632 178.806C98.8 178.33 99.0333 177.924 99.332 177.588C99.64 177.252 100.004 176.995 100.424 176.818C100.844 176.631 101.301 176.538 101.796 176.538C102.291 176.538 102.748 176.631 103.168 176.818C103.588 176.995 103.947 177.252 104.246 177.588C104.554 177.924 104.792 178.33 104.96 178.806C105.128 179.273 105.212 179.791 105.212 180.36ZM103.854 180.36C103.854 179.539 103.667 178.89 103.294 178.414C102.93 177.929 102.431 177.686 101.796 177.686C101.161 177.686 100.657 177.929 100.284 178.414C99.92 178.89 99.738 179.539 99.738 180.36C99.738 181.181 99.92 181.835 100.284 182.32C100.657 182.796 101.161 183.034 101.796 183.034C102.431 183.034 102.93 182.796 103.294 182.32C103.667 181.835 103.854 181.181 103.854 180.36ZM105.854 186.618C105.742 186.618 105.597 186.604 105.42 186.576C105.242 186.548 105.093 186.511 104.972 186.464L105.14 185.4C105.233 185.428 105.34 185.451 105.462 185.47C105.583 185.489 105.695 185.498 105.798 185.498C106.246 185.498 106.563 185.358 106.75 185.078C106.946 184.807 107.044 184.406 107.044 183.874V176.72H108.346V183.86C108.346 184.793 108.131 185.484 107.702 185.932C107.282 186.389 106.666 186.618 105.854 186.618ZM107.688 175.404C107.454 175.404 107.254 175.329 107.086 175.18C106.927 175.021 106.848 174.811 106.848 174.55C106.848 174.289 106.927 174.083 107.086 173.934C107.254 173.775 107.454 173.696 107.688 173.696C107.921 173.696 108.117 173.775 108.276 173.934C108.444 174.083 108.528 174.289 108.528 174.55C108.528 174.811 108.444 175.021 108.276 175.18C108.117 175.329 107.921 175.404 107.688 175.404ZM110.179 180.374C110.179 179.73 110.272 179.17 110.459 178.694C110.646 178.209 110.893 177.807 111.201 177.49C111.509 177.173 111.864 176.935 112.265 176.776C112.666 176.617 113.077 176.538 113.497 176.538C114.477 176.538 115.228 176.846 115.751 177.462C116.274 178.069 116.535 178.997 116.535 180.248C116.535 180.304 116.535 180.379 116.535 180.472C116.535 180.556 116.53 180.635 116.521 180.71H111.537C111.593 181.466 111.812 182.04 112.195 182.432C112.578 182.824 113.175 183.02 113.987 183.02C114.444 183.02 114.827 182.983 115.135 182.908C115.452 182.824 115.69 182.745 115.849 182.67L116.031 183.762C115.872 183.846 115.592 183.935 115.191 184.028C114.799 184.121 114.351 184.168 113.847 184.168C113.212 184.168 112.662 184.075 112.195 183.888C111.738 183.692 111.36 183.426 111.061 183.09C110.762 182.754 110.538 182.357 110.389 181.9C110.249 181.433 110.179 180.925 110.179 180.374ZM115.177 179.66C115.186 179.072 115.037 178.591 114.729 178.218C114.43 177.835 114.015 177.644 113.483 177.644C113.184 177.644 112.918 177.705 112.685 177.826C112.461 177.938 112.27 178.087 112.111 178.274C111.952 178.461 111.826 178.675 111.733 178.918C111.649 179.161 111.593 179.408 111.565 179.66H115.177ZM121.569 184.168C120.981 184.168 120.463 184.075 120.015 183.888C119.576 183.701 119.203 183.44 118.895 183.104C118.596 182.768 118.372 182.371 118.223 181.914C118.074 181.447 117.999 180.934 117.999 180.374C117.999 179.814 118.078 179.301 118.237 178.834C118.405 178.367 118.638 177.966 118.937 177.63C119.236 177.285 119.6 177.019 120.029 176.832C120.468 176.636 120.953 176.538 121.485 176.538C121.812 176.538 122.138 176.566 122.465 176.622C122.792 176.678 123.104 176.767 123.403 176.888L123.109 177.994C122.913 177.901 122.684 177.826 122.423 177.77C122.171 177.714 121.9 177.686 121.611 177.686C120.883 177.686 120.323 177.915 119.931 178.372C119.548 178.829 119.357 179.497 119.357 180.374C119.357 180.766 119.399 181.125 119.483 181.452C119.576 181.779 119.716 182.059 119.903 182.292C120.099 182.525 120.346 182.707 120.645 182.838C120.944 182.959 121.308 183.02 121.737 183.02C122.082 183.02 122.395 182.987 122.675 182.922C122.955 182.857 123.174 182.787 123.333 182.712L123.515 183.804C123.44 183.851 123.333 183.897 123.193 183.944C123.053 183.981 122.894 184.014 122.717 184.042C122.54 184.079 122.348 184.107 122.143 184.126C121.947 184.154 121.756 184.168 121.569 184.168ZM126.131 176.72H128.889V177.812H126.131V181.172C126.131 181.536 126.159 181.839 126.215 182.082C126.271 182.315 126.355 182.502 126.467 182.642C126.579 182.773 126.719 182.866 126.887 182.922C127.055 182.978 127.251 183.006 127.475 183.006C127.867 183.006 128.18 182.964 128.413 182.88C128.656 182.787 128.824 182.721 128.917 182.684L129.169 183.762C129.038 183.827 128.81 183.907 128.483 184C128.156 184.103 127.783 184.154 127.363 184.154C126.868 184.154 126.458 184.093 126.131 183.972C125.814 183.841 125.557 183.65 125.361 183.398C125.165 183.146 125.025 182.838 124.941 182.474C124.866 182.101 124.829 181.671 124.829 181.186V174.69L126.131 174.466V176.72ZM132.24 183.062C132.772 183.062 133.164 182.992 133.416 182.852C133.677 182.712 133.808 182.488 133.808 182.18C133.808 181.863 133.682 181.611 133.43 181.424C133.178 181.237 132.762 181.027 132.184 180.794C131.904 180.682 131.633 180.57 131.372 180.458C131.12 180.337 130.9 180.197 130.714 180.038C130.527 179.879 130.378 179.688 130.266 179.464C130.154 179.24 130.098 178.965 130.098 178.638C130.098 177.994 130.336 177.485 130.812 177.112C131.288 176.729 131.936 176.538 132.758 176.538C132.963 176.538 133.168 176.552 133.374 176.58C133.579 176.599 133.77 176.627 133.948 176.664C134.125 176.692 134.279 176.725 134.41 176.762C134.55 176.799 134.657 176.832 134.732 176.86L134.494 177.98C134.354 177.905 134.134 177.831 133.836 177.756C133.537 177.672 133.178 177.63 132.758 177.63C132.394 177.63 132.076 177.705 131.806 177.854C131.535 177.994 131.4 178.218 131.4 178.526C131.4 178.685 131.428 178.825 131.484 178.946C131.549 179.067 131.642 179.179 131.764 179.282C131.894 179.375 132.053 179.464 132.24 179.548C132.426 179.632 132.65 179.721 132.912 179.814C133.257 179.945 133.565 180.075 133.836 180.206C134.106 180.327 134.335 180.472 134.522 180.64C134.718 180.808 134.867 181.013 134.97 181.256C135.072 181.489 135.124 181.779 135.124 182.124C135.124 182.796 134.872 183.305 134.368 183.65C133.873 183.995 133.164 184.168 132.24 184.168C131.596 184.168 131.092 184.112 130.728 184C130.364 183.897 130.116 183.818 129.986 183.762L130.224 182.642C130.373 182.698 130.611 182.782 130.938 182.894C131.264 183.006 131.698 183.062 132.24 183.062Z" fill="#1E212C"/>
<defs>
<clipPath id="clip0_2111_1777">
<rect width="148" height="148" fill="white"/>
</clipPath>
</defs>
</svg>
