<svg width="148" height="189" viewBox="0 0 148 189" fill="none" xmlns="http://www.w3.org/2000/svg">
<g clip-path="url(#clip0_2111_1794)">
<circle opacity="0.3" cx="74" cy="74" r="71" stroke="#F89828" stroke-width="6"/>
<path d="M74 142C111.555 142 142 111.555 142 74C142 36.4446 111.555 6 74 6V0C114.869 0 148 33.1309 148 74C148 114.869 114.869 148 74 148C33.1309 148 0 114.869 0 74C0 51.3485 10.1774 31.0741 26.209 17.5L30 22.1523C15.3167 34.6254 6 53.2247 6 74C6 111.555 36.4446 142 74 142Z" fill="#F89828"/>
<path d="M49.373 74.096C49.8637 74.096 50.3757 74.0533 50.909 73.968C51.4423 73.8613 51.837 73.7227 52.093 73.552V73.264C52.093 73.1787 52.093 73.0933 52.093 73.008C52.1143 72.9227 52.125 72.848 52.125 72.784C52.1037 72.016 52.0397 71.3013 51.933 70.64C51.8263 69.9573 51.645 69.3707 51.389 68.88C51.133 68.368 50.781 67.9733 50.333 67.696C49.9063 67.3973 49.373 67.248 48.733 67.248C48.221 67.248 47.773 67.3547 47.389 67.568C47.005 67.7813 46.6957 68.0587 46.461 68.4C46.2263 68.7413 46.045 69.1147 45.917 69.52C45.8103 69.9253 45.757 70.32 45.757 70.704C45.757 71.856 46.0343 72.7093 46.589 73.264C47.165 73.8187 48.093 74.096 49.373 74.096ZM51.709 77.2C51.261 77.4133 50.7597 77.5733 50.205 77.68C49.6717 77.7653 49.213 77.808 48.829 77.808C47.4423 77.808 46.2583 77.648 45.277 77.328C44.2957 76.9867 43.485 76.5173 42.845 75.92C42.2263 75.3013 41.7677 74.5653 41.469 73.712C41.1703 72.8587 41.021 71.92 41.021 70.896C41.021 70.0427 41.1597 69.168 41.437 68.272C41.7357 67.376 42.1943 66.5653 42.813 65.84C43.4317 65.0933 44.2103 64.4853 45.149 64.016C46.109 63.5253 47.261 63.28 48.605 63.28C51.357 63.28 53.4263 64.1333 54.813 65.84C56.221 67.5253 56.925 69.9573 56.925 73.136C56.925 75.2267 56.6477 77.072 56.093 78.672C55.5597 80.272 54.717 81.616 53.565 82.704C52.4343 83.792 50.9837 84.624 49.213 85.2C47.4423 85.7547 45.341 86.0427 42.909 86.064C42.8877 85.3813 42.8557 84.72 42.813 84.08C42.7703 83.44 42.7277 82.7787 42.685 82.096C43.901 82.0747 44.9997 81.9893 45.981 81.84C46.9623 81.6693 47.8263 81.4027 48.573 81.04C49.3197 80.656 49.949 80.1547 50.461 79.536C50.9943 78.9173 51.4103 78.1387 51.709 77.2ZM75.2725 79.824C75.2725 80.784 75.1018 81.6693 74.7605 82.48C74.4405 83.2693 73.9498 83.9627 73.2885 84.56C72.6272 85.1573 71.7952 85.6267 70.7925 85.968C69.8112 86.288 68.6698 86.448 67.3685 86.448C65.8752 86.448 64.6272 86.2453 63.6245 85.84C62.6432 85.4133 61.8432 84.8907 61.2245 84.272C60.6272 83.6533 60.2005 82.9813 59.9445 82.256C59.6885 81.5093 59.5605 80.8267 59.5605 80.208C59.5605 79.568 59.6458 78.9813 59.8165 78.448C59.9872 77.9147 60.2218 77.4347 60.5205 77.008C60.8192 76.56 61.1498 76.1547 61.5125 75.792C61.8965 75.4293 62.3018 75.088 62.7285 74.768C61.8112 74.0213 61.1285 73.2853 60.6805 72.56C60.2538 71.8347 60.0405 70.9067 60.0405 69.776C60.0405 68.9227 60.2112 68.1013 60.5525 67.312C60.9152 66.5227 61.4165 65.84 62.0565 65.264C62.6965 64.6667 63.4645 64.1973 64.3605 63.856C65.2778 63.4933 66.2912 63.312 67.4005 63.312C68.7018 63.312 69.8112 63.504 70.7285 63.888C71.6672 64.2507 72.4352 64.72 73.0325 65.296C73.6298 65.872 74.0565 66.5227 74.3125 67.248C74.5898 67.952 74.7285 68.656 74.7285 69.36C74.7285 70.384 74.4512 71.344 73.8965 72.24C73.3632 73.1147 72.6912 73.808 71.8805 74.32C73.0965 75.1093 73.9605 75.9413 74.4725 76.816C75.0058 77.6693 75.2725 78.672 75.2725 79.824ZM64.2005 80.016C64.2005 80.272 64.2538 80.56 64.3605 80.88C64.4885 81.1787 64.6805 81.456 64.9365 81.712C65.1925 81.968 65.5232 82.1813 65.9285 82.352C66.3338 82.5227 66.8245 82.608 67.4005 82.608C68.5098 82.608 69.3205 82.3413 69.8325 81.808C70.3445 81.2747 70.6005 80.6773 70.6005 80.016C70.6005 79.5253 70.4832 79.088 70.2485 78.704C70.0352 78.32 69.7365 77.9893 69.3525 77.712C68.9685 77.4133 68.5098 77.1573 67.9765 76.944C67.4645 76.7093 66.9098 76.496 66.3125 76.304C65.7152 76.752 65.2138 77.2747 64.8085 77.872C64.4032 78.4693 64.2005 79.184 64.2005 80.016ZM70.1205 69.488C70.1205 69.2533 70.0672 69.008 69.9605 68.752C69.8752 68.4747 69.7152 68.2187 69.4805 67.984C69.2672 67.7493 68.9898 67.5573 68.6485 67.408C68.3072 67.2373 67.8912 67.152 67.4005 67.152C66.9312 67.152 66.5258 67.2267 66.1845 67.376C65.8432 67.5253 65.5552 67.728 65.3205 67.984C65.1072 68.2187 64.9472 68.4747 64.8405 68.752C64.7338 69.0293 64.6805 69.296 64.6805 69.552C64.6805 70.2347 64.9258 70.8747 65.4165 71.472C65.9285 72.0693 66.7925 72.5813 68.0085 73.008C68.6912 72.5813 69.2138 72.0907 69.5765 71.536C69.9392 70.9813 70.1205 70.2987 70.1205 69.488ZM88.948 69.52C88.948 71.5253 88.436 73.0613 87.412 74.128C86.388 75.1947 85.012 75.728 83.284 75.728C81.556 75.728 80.18 75.1947 79.156 74.128C78.132 73.0613 77.62 71.5253 77.62 69.52C77.62 67.5147 78.132 65.9787 79.156 64.912C80.18 63.8453 81.556 63.312 83.284 63.312C85.012 63.312 86.388 63.8453 87.412 64.912C88.436 65.9787 88.948 67.5147 88.948 69.52ZM85.332 69.52C85.332 68.432 85.14 67.6427 84.756 67.152C84.372 66.6613 83.8813 66.416 83.284 66.416C82.6653 66.416 82.164 66.6613 81.78 67.152C81.4173 67.6427 81.236 68.432 81.236 69.52C81.236 70.608 81.4173 71.408 81.78 71.92C82.164 72.4107 82.6653 72.656 83.284 72.656C83.8813 72.656 84.372 72.4107 84.756 71.92C85.14 71.408 85.332 70.608 85.332 69.52ZM95.188 63.824H99.636L87.124 86H82.676L95.188 63.824ZM104.756 80.304C104.756 82.3093 104.244 83.8453 103.22 84.912C102.196 85.9787 100.82 86.512 99.092 86.512C97.364 86.512 95.988 85.9787 94.964 84.912C93.94 83.8453 93.428 82.3093 93.428 80.304C93.428 78.2987 93.94 76.7627 94.964 75.696C95.988 74.6293 97.364 74.096 99.092 74.096C100.82 74.096 102.196 74.6293 103.22 75.696C104.244 76.7627 104.756 78.2987 104.756 80.304ZM101.14 80.304C101.14 79.216 100.948 78.4267 100.564 77.936C100.18 77.4453 99.6893 77.2 99.092 77.2C98.4733 77.2 97.972 77.4453 97.588 77.936C97.2253 78.4267 97.044 79.216 97.044 80.304C97.044 81.392 97.2253 82.192 97.588 82.704C97.972 83.1947 98.4733 83.44 99.092 83.44C99.6893 83.44 100.18 83.1947 100.564 82.704C100.948 82.192 101.14 81.392 101.14 80.304Z" fill="#1E212C"/>
</g>
<path d="M9.12936 174.298V175.474H6.07736V184H4.71936V175.474H1.66736V174.298H9.12936ZM16.1398 180.36C16.1398 180.939 16.0558 181.461 15.8878 181.928C15.7198 182.395 15.4818 182.796 15.1738 183.132C14.8751 183.468 14.5158 183.729 14.0958 183.916C13.6758 184.093 13.2184 184.182 12.7238 184.182C12.2291 184.182 11.7718 184.093 11.3518 183.916C10.9318 183.729 10.5678 183.468 10.2598 183.132C9.96108 182.796 9.72775 182.395 9.55975 181.928C9.39175 181.461 9.30775 180.939 9.30775 180.36C9.30775 179.791 9.39175 179.273 9.55975 178.806C9.72775 178.33 9.96108 177.924 10.2598 177.588C10.5678 177.252 10.9318 176.995 11.3518 176.818C11.7718 176.631 12.2291 176.538 12.7238 176.538C13.2184 176.538 13.6758 176.631 14.0958 176.818C14.5158 176.995 14.8751 177.252 15.1738 177.588C15.4818 177.924 15.7198 178.33 15.8878 178.806C16.0558 179.273 16.1398 179.791 16.1398 180.36ZM14.7818 180.36C14.7818 179.539 14.5951 178.89 14.2218 178.414C13.8578 177.929 13.3584 177.686 12.7238 177.686C12.0891 177.686 11.5851 177.929 11.2118 178.414C10.8478 178.89 10.6658 179.539 10.6658 180.36C10.6658 181.181 10.8478 181.835 11.2118 182.32C11.5851 182.796 12.0891 183.034 12.7238 183.034C13.3584 183.034 13.8578 182.796 14.2218 182.32C14.5951 181.835 14.7818 181.181 14.7818 180.36ZM19.1896 176.72H21.9476V177.812H19.1896V181.172C19.1896 181.536 19.2176 181.839 19.2736 182.082C19.3296 182.315 19.4136 182.502 19.5256 182.642C19.6376 182.773 19.7776 182.866 19.9456 182.922C20.1136 182.978 20.3096 183.006 20.5336 183.006C20.9256 183.006 21.2382 182.964 21.4716 182.88C21.7142 182.787 21.8822 182.721 21.9756 182.684L22.2276 183.762C22.0969 183.827 21.8682 183.907 21.5416 184C21.2149 184.103 20.8416 184.154 20.4216 184.154C19.9269 184.154 19.5162 184.093 19.1896 183.972C18.8722 183.841 18.6156 183.65 18.4196 183.398C18.2236 183.146 18.0836 182.838 17.9996 182.474C17.9249 182.101 17.8876 181.671 17.8876 181.186V174.69L19.1896 174.466V176.72ZM26.0684 183.062C26.3764 183.062 26.647 183.057 26.8804 183.048C27.123 183.029 27.3237 183.001 27.4824 182.964V180.794C27.389 180.747 27.235 180.71 27.0204 180.682C26.815 180.645 26.563 180.626 26.2644 180.626C26.0684 180.626 25.8584 180.64 25.6344 180.668C25.4197 180.696 25.219 180.757 25.0324 180.85C24.855 180.934 24.7057 181.055 24.5844 181.214C24.463 181.363 24.4024 181.564 24.4024 181.816C24.4024 182.283 24.5517 182.609 24.8504 182.796C25.149 182.973 25.555 183.062 26.0684 183.062ZM25.9564 176.538C26.479 176.538 26.9177 176.608 27.2724 176.748C27.6364 176.879 27.9257 177.07 28.1404 177.322C28.3644 177.565 28.523 177.859 28.6164 178.204C28.7097 178.54 28.7564 178.913 28.7564 179.324V183.874C28.6444 183.893 28.4857 183.921 28.2804 183.958C28.0844 183.986 27.8604 184.014 27.6084 184.042C27.3564 184.07 27.081 184.093 26.7824 184.112C26.493 184.14 26.2037 184.154 25.9144 184.154C25.5037 184.154 25.1257 184.112 24.7804 184.028C24.435 183.944 24.1364 183.813 23.8844 183.636C23.6324 183.449 23.4364 183.207 23.2964 182.908C23.1564 182.609 23.0864 182.25 23.0864 181.83C23.0864 181.429 23.1657 181.083 23.3244 180.794C23.4924 180.505 23.7164 180.271 23.9964 180.094C24.2764 179.917 24.603 179.786 24.9764 179.702C25.3497 179.618 25.7417 179.576 26.1524 179.576C26.283 179.576 26.4184 179.585 26.5584 179.604C26.6984 179.613 26.829 179.632 26.9504 179.66C27.081 179.679 27.193 179.697 27.2864 179.716C27.3797 179.735 27.445 179.749 27.4824 179.758V179.394C27.4824 179.179 27.459 178.969 27.4124 178.764C27.3657 178.549 27.2817 178.363 27.1604 178.204C27.039 178.036 26.871 177.905 26.6564 177.812C26.451 177.709 26.1804 177.658 25.8444 177.658C25.415 177.658 25.037 177.691 24.7104 177.756C24.393 177.812 24.155 177.873 23.9964 177.938L23.8424 176.86C24.0104 176.785 24.2904 176.715 24.6824 176.65C25.0744 176.575 25.499 176.538 25.9564 176.538ZM33.1028 184.14C32.3002 184.121 31.7308 183.949 31.3948 183.622C31.0588 183.295 30.8908 182.787 30.8908 182.096V173.36L32.1928 173.136V181.886C32.1928 182.101 32.2115 182.278 32.2488 182.418C32.2862 182.558 32.3468 182.67 32.4308 182.754C32.5148 182.838 32.6268 182.903 32.7668 182.95C32.9068 182.987 33.0795 183.02 33.2848 183.048L33.1028 184.14ZM36.931 184.14C36.1283 184.121 35.559 183.949 35.223 183.622C34.887 183.295 34.719 182.787 34.719 182.096V173.36L36.021 173.136V181.886C36.021 182.101 36.0396 182.278 36.077 182.418C36.1143 182.558 36.175 182.67 36.259 182.754C36.343 182.838 36.455 182.903 36.595 182.95C36.735 182.987 36.9076 183.02 37.113 183.048L36.931 184.14ZM37.7211 185.358C37.8237 185.405 37.9544 185.447 38.1131 185.484C38.2811 185.531 38.4444 185.554 38.6031 185.554C39.1164 185.554 39.5177 185.437 39.8071 185.204C40.0964 184.98 40.3577 184.611 40.5911 184.098C40.0031 182.978 39.4524 181.793 38.9391 180.542C38.4351 179.282 38.0151 178.008 37.6791 176.72H39.0791C39.1817 177.14 39.3031 177.593 39.4431 178.078C39.5924 178.563 39.7557 179.063 39.9331 179.576C40.1104 180.089 40.3017 180.603 40.5071 181.116C40.7124 181.629 40.9271 182.124 41.1511 182.6C41.5057 181.62 41.8137 180.649 42.0751 179.688C42.3364 178.727 42.5837 177.737 42.8171 176.72H44.1611C43.8251 178.092 43.4517 179.413 43.0411 180.682C42.6304 181.942 42.1871 183.123 41.7111 184.224C41.5244 184.644 41.3284 185.003 41.1231 185.302C40.9271 185.61 40.7077 185.862 40.4651 186.058C40.2224 186.254 39.9471 186.399 39.6391 186.492C39.3404 186.585 38.9997 186.632 38.6171 186.632C38.5144 186.632 38.4071 186.623 38.2951 186.604C38.1831 186.595 38.0711 186.576 37.9591 186.548C37.8564 186.529 37.7584 186.506 37.6651 186.478C37.5811 186.45 37.5204 186.427 37.4831 186.408L37.7211 185.358ZM50.4683 183.062C51.0003 183.062 51.3923 182.992 51.6443 182.852C51.9056 182.712 52.0363 182.488 52.0363 182.18C52.0363 181.863 51.9103 181.611 51.6583 181.424C51.4063 181.237 50.991 181.027 50.4123 180.794C50.1323 180.682 49.8616 180.57 49.6003 180.458C49.3483 180.337 49.129 180.197 48.9423 180.038C48.7556 179.879 48.6063 179.688 48.4943 179.464C48.3823 179.24 48.3263 178.965 48.3263 178.638C48.3263 177.994 48.5643 177.485 49.0403 177.112C49.5163 176.729 50.165 176.538 50.9863 176.538C51.1916 176.538 51.397 176.552 51.6023 176.58C51.8076 176.599 51.999 176.627 52.1763 176.664C52.3536 176.692 52.5076 176.725 52.6383 176.762C52.7783 176.799 52.8856 176.832 52.9603 176.86L52.7223 177.98C52.5823 177.905 52.363 177.831 52.0643 177.756C51.7656 177.672 51.4063 177.63 50.9863 177.63C50.6223 177.63 50.305 177.705 50.0343 177.854C49.7636 177.994 49.6283 178.218 49.6283 178.526C49.6283 178.685 49.6563 178.825 49.7123 178.946C49.7776 179.067 49.871 179.179 49.9923 179.282C50.123 179.375 50.2816 179.464 50.4683 179.548C50.655 179.632 50.879 179.721 51.1403 179.814C51.4856 179.945 51.7936 180.075 52.0643 180.206C52.335 180.327 52.5636 180.472 52.7503 180.64C52.9463 180.808 53.0956 181.013 53.1983 181.256C53.301 181.489 53.3523 181.779 53.3523 182.124C53.3523 182.796 53.1003 183.305 52.5963 183.65C52.1016 183.995 51.3923 184.168 50.4683 184.168C49.8243 184.168 49.3203 184.112 48.9563 184C48.5923 183.897 48.345 183.818 48.2143 183.762L48.4523 182.642C48.6016 182.698 48.8396 182.782 49.1663 182.894C49.493 183.006 49.927 183.062 50.4683 183.062ZM57.4863 183.062C57.7943 183.062 58.065 183.057 58.2983 183.048C58.541 183.029 58.7417 183.001 58.9003 182.964V180.794C58.807 180.747 58.653 180.71 58.4383 180.682C58.233 180.645 57.981 180.626 57.6823 180.626C57.4863 180.626 57.2763 180.64 57.0523 180.668C56.8377 180.696 56.637 180.757 56.4503 180.85C56.273 180.934 56.1237 181.055 56.0023 181.214C55.881 181.363 55.8203 181.564 55.8203 181.816C55.8203 182.283 55.9697 182.609 56.2683 182.796C56.567 182.973 56.973 183.062 57.4863 183.062ZM57.3743 176.538C57.897 176.538 58.3357 176.608 58.6903 176.748C59.0543 176.879 59.3437 177.07 59.5583 177.322C59.7823 177.565 59.941 177.859 60.0343 178.204C60.1277 178.54 60.1743 178.913 60.1743 179.324V183.874C60.0623 183.893 59.9037 183.921 59.6983 183.958C59.5023 183.986 59.2783 184.014 59.0263 184.042C58.7743 184.07 58.499 184.093 58.2003 184.112C57.911 184.14 57.6217 184.154 57.3323 184.154C56.9217 184.154 56.5437 184.112 56.1983 184.028C55.853 183.944 55.5543 183.813 55.3023 183.636C55.0503 183.449 54.8543 183.207 54.7143 182.908C54.5743 182.609 54.5043 182.25 54.5043 181.83C54.5043 181.429 54.5837 181.083 54.7423 180.794C54.9103 180.505 55.1343 180.271 55.4143 180.094C55.6943 179.917 56.021 179.786 56.3943 179.702C56.7677 179.618 57.1597 179.576 57.5703 179.576C57.701 179.576 57.8363 179.585 57.9763 179.604C58.1163 179.613 58.247 179.632 58.3683 179.66C58.499 179.679 58.611 179.697 58.7043 179.716C58.7977 179.735 58.863 179.749 58.9003 179.758V179.394C58.9003 179.179 58.877 178.969 58.8303 178.764C58.7837 178.549 58.6997 178.363 58.5783 178.204C58.457 178.036 58.289 177.905 58.0743 177.812C57.869 177.709 57.5983 177.658 57.2623 177.658C56.833 177.658 56.455 177.691 56.1283 177.756C55.811 177.812 55.573 177.873 55.4143 177.938L55.2603 176.86C55.4283 176.785 55.7083 176.715 56.1003 176.65C56.4923 176.575 56.917 176.538 57.3743 176.538ZM63.5548 176.72H66.3128V177.812H63.5548V181.172C63.5548 181.536 63.5828 181.839 63.6388 182.082C63.6948 182.315 63.7788 182.502 63.8908 182.642C64.0028 182.773 64.1428 182.866 64.3108 182.922C64.4788 182.978 64.6748 183.006 64.8988 183.006C65.2908 183.006 65.6035 182.964 65.8368 182.88C66.0795 182.787 66.2475 182.721 66.3408 182.684L66.5928 183.762C66.4621 183.827 66.2335 183.907 65.9068 184C65.5801 184.103 65.2068 184.154 64.7868 184.154C64.2921 184.154 63.8815 184.093 63.5548 183.972C63.2375 183.841 62.9808 183.65 62.7848 183.398C62.5888 183.146 62.4488 182.838 62.3648 182.474C62.2901 182.101 62.2528 181.671 62.2528 181.186V174.69L63.5548 174.466V176.72ZM69.2716 184H67.9696V176.72H69.2716V184ZM68.6136 175.404C68.3803 175.404 68.1796 175.329 68.0116 175.18C67.8529 175.021 67.7736 174.811 67.7736 174.55C67.7736 174.289 67.8529 174.083 68.0116 173.934C68.1796 173.775 68.3803 173.696 68.6136 173.696C68.8469 173.696 69.0429 173.775 69.2016 173.934C69.3696 174.083 69.4536 174.289 69.4536 174.55C69.4536 174.811 69.3696 175.021 69.2016 175.18C69.0429 175.329 68.8469 175.404 68.6136 175.404ZM73.2046 183.062C73.7366 183.062 74.1286 182.992 74.3806 182.852C74.642 182.712 74.7726 182.488 74.7726 182.18C74.7726 181.863 74.6466 181.611 74.3946 181.424C74.1426 181.237 73.7273 181.027 73.1486 180.794C72.8686 180.682 72.598 180.57 72.3366 180.458C72.0846 180.337 71.8653 180.197 71.6786 180.038C71.492 179.879 71.3426 179.688 71.2306 179.464C71.1186 179.24 71.0626 178.965 71.0626 178.638C71.0626 177.994 71.3006 177.485 71.7766 177.112C72.2526 176.729 72.9013 176.538 73.7226 176.538C73.928 176.538 74.1333 176.552 74.3386 176.58C74.544 176.599 74.7353 176.627 74.9126 176.664C75.09 176.692 75.244 176.725 75.3746 176.762C75.5146 176.799 75.622 176.832 75.6966 176.86L75.4586 177.98C75.3186 177.905 75.0993 177.831 74.8006 177.756C74.502 177.672 74.1426 177.63 73.7226 177.63C73.3586 177.63 73.0413 177.705 72.7706 177.854C72.5 177.994 72.3646 178.218 72.3646 178.526C72.3646 178.685 72.3926 178.825 72.4486 178.946C72.514 179.067 72.6073 179.179 72.7286 179.282C72.8593 179.375 73.018 179.464 73.2046 179.548C73.3913 179.632 73.6153 179.721 73.8766 179.814C74.222 179.945 74.53 180.075 74.8006 180.206C75.0713 180.327 75.3 180.472 75.4866 180.64C75.6826 180.808 75.832 181.013 75.9346 181.256C76.0373 181.489 76.0886 181.779 76.0886 182.124C76.0886 182.796 75.8366 183.305 75.3326 183.65C74.838 183.995 74.1286 184.168 73.2046 184.168C72.5606 184.168 72.0566 184.112 71.6926 184C71.3286 183.897 71.0813 183.818 70.9506 183.762L71.1886 182.642C71.338 182.698 71.576 182.782 71.9026 182.894C72.2293 183.006 72.6633 183.062 73.2046 183.062ZM80.6007 173.136C80.9273 173.136 81.2073 173.159 81.4407 173.206C81.674 173.243 81.842 173.281 81.9447 173.318L81.7627 174.438C81.66 174.401 81.52 174.363 81.3427 174.326C81.1653 174.279 80.9507 174.256 80.6987 174.256C80.092 174.256 79.6673 174.424 79.4247 174.76C79.182 175.087 79.0607 175.53 79.0607 176.09V176.72H81.8607V177.812H79.0607V184H77.7587V176.062C77.7587 175.129 77.9873 174.41 78.4447 173.906C78.902 173.393 79.6207 173.136 80.6007 173.136ZM84.5207 184H83.2187V176.72H84.5207V184ZM83.8627 175.404C83.6293 175.404 83.4287 175.329 83.2607 175.18C83.102 175.021 83.0227 174.811 83.0227 174.55C83.0227 174.289 83.102 174.083 83.2607 173.934C83.4287 173.775 83.6293 173.696 83.8627 173.696C84.096 173.696 84.292 173.775 84.4507 173.934C84.6187 174.083 84.7027 174.289 84.7027 174.55C84.7027 174.811 84.6187 175.021 84.4507 175.18C84.292 175.329 84.096 175.404 83.8627 175.404ZM86.3488 180.374C86.3488 179.73 86.4421 179.17 86.6288 178.694C86.8154 178.209 87.0628 177.807 87.3708 177.49C87.6788 177.173 88.0334 176.935 88.4348 176.776C88.8361 176.617 89.2468 176.538 89.6668 176.538C90.6468 176.538 91.3981 176.846 91.9208 177.462C92.4434 178.069 92.7048 178.997 92.7048 180.248C92.7048 180.304 92.7048 180.379 92.7048 180.472C92.7048 180.556 92.7001 180.635 92.6908 180.71H87.7068C87.7628 181.466 87.9821 182.04 88.3648 182.432C88.7474 182.824 89.3448 183.02 90.1568 183.02C90.6141 183.02 90.9968 182.983 91.3048 182.908C91.6221 182.824 91.8601 182.745 92.0188 182.67L92.2008 183.762C92.0421 183.846 91.7621 183.935 91.3608 184.028C90.9688 184.121 90.5208 184.168 90.0168 184.168C89.3821 184.168 88.8314 184.075 88.3648 183.888C87.9074 183.692 87.5294 183.426 87.2308 183.09C86.9321 182.754 86.7081 182.357 86.5588 181.9C86.4188 181.433 86.3488 180.925 86.3488 180.374ZM91.3468 179.66C91.3561 179.072 91.2068 178.591 90.8988 178.218C90.6001 177.835 90.1848 177.644 89.6528 177.644C89.3541 177.644 89.0881 177.705 88.8548 177.826C88.6308 177.938 88.4394 178.087 88.2808 178.274C88.1221 178.461 87.9961 178.675 87.9028 178.918C87.8188 179.161 87.7628 179.408 87.7348 179.66H91.3468ZM99.2791 178.26C99.1204 178.129 98.8917 178.003 98.5931 177.882C98.2944 177.761 97.9677 177.7 97.6131 177.7C97.2397 177.7 96.9177 177.77 96.6471 177.91C96.3857 178.041 96.1711 178.227 96.0031 178.47C95.8351 178.703 95.7137 178.983 95.6391 179.31C95.5644 179.637 95.5271 179.987 95.5271 180.36C95.5271 181.209 95.7371 181.867 96.1571 182.334C96.5771 182.791 97.1371 183.02 97.8371 183.02C98.1917 183.02 98.4857 183.006 98.7191 182.978C98.9617 182.941 99.1484 182.903 99.2791 182.866V178.26ZM99.2791 173.36L100.581 173.136V183.79C100.282 183.874 99.8997 183.958 99.4331 184.042C98.9664 184.126 98.4297 184.168 97.8231 184.168C97.2631 184.168 96.7591 184.079 96.3111 183.902C95.8631 183.725 95.4804 183.473 95.1631 183.146C94.8457 182.819 94.5984 182.423 94.4211 181.956C94.2531 181.48 94.1691 180.948 94.1691 180.36C94.1691 179.8 94.2391 179.287 94.3791 178.82C94.5284 178.353 94.7431 177.952 95.0231 177.616C95.3031 177.28 95.6437 177.019 96.0451 176.832C96.4557 176.645 96.9224 176.552 97.4451 176.552C97.8651 176.552 98.2337 176.608 98.5511 176.72C98.8777 176.832 99.1204 176.939 99.2791 177.042V173.36ZM109.223 184.168C108.635 184.168 108.117 184.075 107.669 183.888C107.231 183.701 106.857 183.44 106.549 183.104C106.251 182.768 106.027 182.371 105.877 181.914C105.728 181.447 105.653 180.934 105.653 180.374C105.653 179.814 105.733 179.301 105.891 178.834C106.059 178.367 106.293 177.966 106.591 177.63C106.89 177.285 107.254 177.019 107.683 176.832C108.122 176.636 108.607 176.538 109.139 176.538C109.466 176.538 109.793 176.566 110.119 176.622C110.446 176.678 110.759 176.767 111.057 176.888L110.763 177.994C110.567 177.901 110.339 177.826 110.077 177.77C109.825 177.714 109.555 177.686 109.265 177.686C108.537 177.686 107.977 177.915 107.585 178.372C107.203 178.829 107.011 179.497 107.011 180.374C107.011 180.766 107.053 181.125 107.137 181.452C107.231 181.779 107.371 182.059 107.557 182.292C107.753 182.525 108.001 182.707 108.299 182.838C108.598 182.959 108.962 183.02 109.391 183.02C109.737 183.02 110.049 182.987 110.329 182.922C110.609 182.857 110.829 182.787 110.987 182.712L111.169 183.804C111.095 183.851 110.987 183.897 110.847 183.944C110.707 183.981 110.549 184.014 110.371 184.042C110.194 184.079 110.003 184.107 109.797 184.126C109.601 184.154 109.41 184.168 109.223 184.168ZM114.751 184.14C113.949 184.121 113.379 183.949 113.043 183.622C112.707 183.295 112.539 182.787 112.539 182.096V173.36L113.841 173.136V181.886C113.841 182.101 113.86 182.278 113.897 182.418C113.935 182.558 113.995 182.67 114.079 182.754C114.163 182.838 114.275 182.903 114.415 182.95C114.555 182.987 114.728 183.02 114.933 183.048L114.751 184.14ZM117.697 184H116.395V176.72H117.697V184ZM117.039 175.404C116.806 175.404 116.605 175.329 116.437 175.18C116.279 175.021 116.199 174.811 116.199 174.55C116.199 174.289 116.279 174.083 116.437 173.934C116.605 173.775 116.806 173.696 117.039 173.696C117.273 173.696 117.469 173.775 117.627 173.934C117.795 174.083 117.879 174.289 117.879 174.55C117.879 174.811 117.795 175.021 117.627 175.18C117.469 175.329 117.273 175.404 117.039 175.404ZM119.53 180.374C119.53 179.73 119.624 179.17 119.81 178.694C119.997 178.209 120.244 177.807 120.552 177.49C120.86 177.173 121.215 176.935 121.616 176.776C122.018 176.617 122.428 176.538 122.848 176.538C123.828 176.538 124.58 176.846 125.102 177.462C125.625 178.069 125.886 178.997 125.886 180.248C125.886 180.304 125.886 180.379 125.886 180.472C125.886 180.556 125.882 180.635 125.872 180.71H120.888C120.944 181.466 121.164 182.04 121.546 182.432C121.929 182.824 122.526 183.02 123.338 183.02C123.796 183.02 124.178 182.983 124.486 182.908C124.804 182.824 125.042 182.745 125.2 182.67L125.382 183.762C125.224 183.846 124.944 183.935 124.542 184.028C124.15 184.121 123.702 184.168 123.198 184.168C122.564 184.168 122.013 184.075 121.546 183.888C121.089 183.692 120.711 183.426 120.412 183.09C120.114 182.754 119.89 182.357 119.74 181.9C119.6 181.433 119.53 180.925 119.53 180.374ZM124.528 179.66C124.538 179.072 124.388 178.591 124.08 178.218C123.782 177.835 123.366 177.644 122.834 177.644C122.536 177.644 122.27 177.705 122.036 177.826C121.812 177.938 121.621 178.087 121.462 178.274C121.304 178.461 121.178 178.675 121.084 178.918C121 179.161 120.944 179.408 120.916 179.66H124.528ZM127.757 176.93C128.055 176.855 128.452 176.776 128.947 176.692C129.441 176.608 130.011 176.566 130.655 176.566C131.233 176.566 131.714 176.65 132.097 176.818C132.479 176.977 132.783 177.205 133.007 177.504C133.24 177.793 133.403 178.143 133.497 178.554C133.59 178.965 133.637 179.417 133.637 179.912V184H132.335V180.192C132.335 179.744 132.302 179.361 132.237 179.044C132.181 178.727 132.083 178.47 131.943 178.274C131.803 178.078 131.616 177.938 131.383 177.854C131.149 177.761 130.86 177.714 130.515 177.714C130.375 177.714 130.23 177.719 130.081 177.728C129.931 177.737 129.787 177.751 129.647 177.77C129.516 177.779 129.395 177.793 129.283 177.812C129.18 177.831 129.105 177.845 129.059 177.854V184H127.757V176.93ZM137.014 176.72H139.772V177.812H137.014V181.172C137.014 181.536 137.042 181.839 137.098 182.082C137.154 182.315 137.238 182.502 137.35 182.642C137.462 182.773 137.602 182.866 137.77 182.922C137.938 182.978 138.134 183.006 138.358 183.006C138.75 183.006 139.062 182.964 139.296 182.88C139.538 182.787 139.706 182.721 139.8 182.684L140.052 183.762C139.921 183.827 139.692 183.907 139.366 184C139.039 184.103 138.666 184.154 138.246 184.154C137.751 184.154 137.34 184.093 137.014 183.972C136.696 183.841 136.44 183.65 136.244 183.398C136.048 183.146 135.908 182.838 135.824 182.474C135.749 182.101 135.712 181.671 135.712 181.186V174.69L137.014 174.466V176.72ZM143.123 183.062C143.655 183.062 144.047 182.992 144.299 182.852C144.56 182.712 144.691 182.488 144.691 182.18C144.691 181.863 144.565 181.611 144.313 181.424C144.061 181.237 143.645 181.027 143.067 180.794C142.787 180.682 142.516 180.57 142.255 180.458C142.003 180.337 141.783 180.197 141.597 180.038C141.41 179.879 141.261 179.688 141.149 179.464C141.037 179.24 140.981 178.965 140.981 178.638C140.981 177.994 141.219 177.485 141.695 177.112C142.171 176.729 142.819 176.538 143.641 176.538C143.846 176.538 144.051 176.552 144.257 176.58C144.462 176.599 144.653 176.627 144.831 176.664C145.008 176.692 145.162 176.725 145.293 176.762C145.433 176.799 145.54 176.832 145.615 176.86L145.377 177.98C145.237 177.905 145.017 177.831 144.719 177.756C144.42 177.672 144.061 177.63 143.641 177.63C143.277 177.63 142.959 177.705 142.689 177.854C142.418 177.994 142.283 178.218 142.283 178.526C142.283 178.685 142.311 178.825 142.367 178.946C142.432 179.067 142.525 179.179 142.647 179.282C142.777 179.375 142.936 179.464 143.123 179.548C143.309 179.632 143.533 179.721 143.795 179.814C144.14 179.945 144.448 180.075 144.719 180.206C144.989 180.327 145.218 180.472 145.405 180.64C145.601 180.808 145.75 181.013 145.853 181.256C145.955 181.489 146.007 181.779 146.007 182.124C146.007 182.796 145.755 183.305 145.251 183.65C144.756 183.995 144.047 184.168 143.123 184.168C142.479 184.168 141.975 184.112 141.611 184C141.247 183.897 140.999 183.818 140.869 183.762L141.107 182.642C141.256 182.698 141.494 182.782 141.821 182.894C142.147 183.006 142.581 183.062 143.123 183.062Z" fill="#1E212C"/>
<defs>
<clipPath id="clip0_2111_1794">
<rect width="148" height="148" fill="white"/>
</clipPath>
</defs>
</svg>
